<?xml version="1.0" encoding="UTF-8"?>
<svg width="206px" height="175px" viewBox="0 0 206 175" version="1.1" xmlns="http://www.w3.org/2000/svg" xmlns:xlink="http://www.w3.org/1999/xlink">
    <!-- Generator: Sketch 41.2 (35397) - http://www.bohemiancoding.com/sketch -->
    <title>shut-up</title>
    <desc>Created with Sketch.</desc>
    <defs></defs>
    <g id="Page-1" stroke="none" stroke-width="1" fill="none" fill-rule="evenodd">
        <g id="shut-up" transform="translate(-1.000000, -1.000000)">
            <g id="g3062" transform="translate(0.987928, 0.041614)">
                <rect id="rect5979" fill="#FFFFFF" x="8" y="121.36078" width="57" height="54" rx="8.9019165"></rect>
                <g id="g306" transform="translate(103.342014, 88.216923) scale(1, -1) translate(-103.342014, -88.216923) translate(0.342014, 0.716923)">
                    <path d="M72.841182,94.2131053 C73.9531426,95.0043979 76.6795792,96.0407839 77.4243621,97.4998609 C78.4129139,99.4364038 77.4756298,101.670097 77.2170024,103.59639 C77.001861,105.198713 76.312905,106.680269 75.4627303,107.368276 C74.6926614,107.991451 71.0759971,110.662364 68.1635136,111.582182 C64.6953426,112.677482 60.3425561,112.114754 58.9862772,111.860816 C57.820577,111.642569 55.1937005,106.598959 54.2720714,105.504326 C56.118305,104.836172 53.6261894,99.1882774 57.925035,94.8225199 C62.0199083,92.3672566 69.5864313,90.2178977 73.646058,93.0058565 L72.841182,94.2131053 Z" id="path4117-path-copy" fill="#FFFFFF"></path>
                    <path d="M91.7362364,97.3589182 C93.2886875,98.9104035 94.9721003,100.102593 95.2532947,101.600299 C95.588366,103.386392 96.1561104,110.535399 92.8929647,110.891611 C92.1237197,112.479671 89.7710799,111.230593 88.89431,111.804679 C88.0175859,112.378764 87.5041761,113.006448 86.5237264,113.199531 C85.1571666,113.468646 82.9015692,112.96316 80.1642428,111.033947 C77.7558492,109.336561 71.7986022,111.327202 71.86937,110.478994 C71.9270462,109.787299 77.2236398,106.459973 77.4919257,105.052299 C77.8260814,103.29777 78.9877077,99.5122617 80.7472439,97.8395204 C82.1588919,96.4974634 85.0537339,95.4646185 85.4587582,95.2983863 C85.8638649,95.1321502 88.8990065,94.1682822 89.7444207,94.1401066 C90.7039513,94.1081185 90.1966753,95.8201031 91.736218,97.3589361 L91.7362364,97.3589182 Z" id="path4117-path-copy-2" fill="#FFFFFF"></path>
                    <path d="M70.2888085,68.8911932 C69.7531979,69.1996018 65.9707833,70.3758567 61.8834491,71.505165 C57.794435,72.6349683 53.7793014,73.3897697 52.9564131,73.1833644 C52.1338863,72.9769972 51.4608599,72.5162501 51.4608599,72.15941 C51.4608599,71.802646 52.1310025,71.6786734 52.9500504,71.8841268 C53.9690882,72.1396109 54.8207277,71.8365329 55.6476489,70.9232248 C56.5127919,69.9678056 57.7033936,69.5726238 59.83929,69.5319215 C61.4800865,69.5006504 64.2833331,69.247881 66.0687458,68.9697803 C67.8541448,68.6918318 69.7531567,68.4343297 70.2888131,68.3975111 C71.1544597,68.3381139 71.1544597,68.3929687 70.2888131,68.8912313 L70.2888085,68.8911932 Z" id="path4115-path-copy" fill="#FFFFFF"></path>
                    <path d="M0.171022834,29.3260169 C0.171022834,58.5284605 0.171022834,58.5284605 1.63181051,59.4578097 C2.43524371,59.9689302 5.29556099,60.9957022 7.98807117,61.7394618 C10.6805795,62.4832213 14.7122227,63.282761 16.9472759,63.5162377 C20.1254042,63.8482528 21.6053198,64.3940217 23.7381034,66.0207435 C25.2380052,67.1647488 27.6952312,68.7275425 29.1986,69.4936141 C30.7019715,70.2596857 32.6427758,70.8864404 33.511503,70.8864404 C34.4146849,70.8864404 35.2801484,71.3726217 35.5327336,72.0219169 C35.775706,72.6464251 36.1409566,75.6908363 36.3444529,78.7872429 C36.7144504,84.4170809 36.7144504,84.4170809 34.3632204,85.3988862 C32.959734,85.9849386 31.1643424,87.5825329 29.909061,89.3623488 C28.7524425,91.0022598 26.4485802,93.2146121 24.7893603,94.2786787 C23.130144,95.3427529 20.1625316,97.9003164 18.1946703,99.962164 C16.2268086,102.024012 13.9958746,104.927235 13.2370334,106.413784 C12.1379172,108.566918 11.8586179,110.276465 11.8636668,114.81983 C11.8689254,119.559585 12.1399175,121.07114 13.4677748,123.767296 C14.346545,125.551619 15.5196196,127.625823 16.0746065,128.376639 C16.1039184,151.174743 75.1872303,135.401534 90.7398799,120.566328 C92.5170394,118.790245 93.0122308,117.772813 93.0122308,115.897379 C93.0122308,114.307495 93.7106622,112.411617 95.0848207,110.271526 C96.6780572,107.790223 97.1574106,106.324257 97.1574106,103.933192 C97.1574106,101.578333 96.6648741,100.030896 95.1299546,97.5632027 C93.1888299,94.4425004 93.1577946,94.2861449 94.400671,93.891915 C95.1146658,93.6654441 96.261873,92.5572789 96.9500966,91.4293261 C97.6382745,90.3013808 98.2024485,88.7439557 98.2037759,87.9683958 C98.2050759,87.1928435 97.4510557,85.6614238 96.5281448,84.5652027 C94.8500877,82.5721601 94.8500877,82.5721601 96.2264891,80.3465317 C96.9834664,79.1224544 98.9179538,76.4283268 100.525335,74.3596137 C102.132716,72.2908777 103.606984,69.964632 103.801481,69.1901382 C103.996023,68.415652 103.702149,66.9062396 103.148137,65.8358716 C102.594308,64.7655417 101.328865,63.6082481 100.336056,63.2641632 C99.2618139,62.8917884 96.7780293,62.8505911 94.2016057,63.1625026 C91.820494,63.4507313 88.090203,64.1478108 85.9121023,64.7118557 C83.314247,65.3846052 80.8528051,65.5916958 78.7569525,65.3138616 C76.6381301,65.0328671 75.083024,64.3807925 74.1400684,63.3776651 C72.7181669,61.8650164 72.7181669,61.8650164 74.4984848,59.7505141 C76.1108094,57.8355255 76.2403062,57.308718 75.8708123,54.1669297 C75.4629592,50.6978286 75.4629592,50.6978286 80.8719802,48.2003209 C83.8470195,46.8266845 87.8486953,45.2375809 89.7646027,44.668967 C91.6805056,44.100353 94.0079693,43.635113 94.9367622,43.635113 C95.8882823,43.635113 100.055063,45.7134439 104.482041,48.3962137 C108.803179,51.0148307 113.614272,54.1945951 115.17337,55.4623865 C116.732458,56.7301741 120.227847,59.1082705 122.940871,60.7470126 C125.653896,62.3857661 129.41232,64.0815182 131.292931,64.5153462 C134.712214,65.3041486 134.712214,65.3041486 134.295526,68.8475724 C134.008976,71.2859798 134.188871,73.3199114 134.872472,75.3696593 C135.418977,77.0079179 137.070942,79.9361047 138.543516,81.8767369 C141.220928,85.4051591 141.220928,85.4051591 139.683903,86.6489898 C138.838535,87.3330856 136.829389,88.5535839 135.219124,89.361184 C133.608859,90.1687766 129.434599,91.4520264 125.943005,92.2128551 C122.451397,92.9736837 119.456794,93.5961778 119.288306,93.5961778 C119.119855,93.5961778 118.982073,94.0791342 118.982073,94.6694129 C118.982073,95.2596916 120.151527,96.7430492 121.580844,97.965752 C123.010161,99.1884624 125.390632,102.282257 126.870745,104.840866 C128.350872,107.399469 130.876449,110.770099 132.483116,112.331148 C135.40437,115.16942 135.40437,115.16942 133.654812,118.734503 C131.980967,122.145304 131.954417,122.353868 133.041064,123.553878 C133.665753,124.243739 135.855526,125.274598 137.907252,125.844677 C141.317151,126.792134 141.654466,127.050744 141.833857,128.854785 C142.030231,130.828386 142.030231,130.828386 148.847073,130.909607 C152.596438,130.95427 158.049362,131.230467 160.964702,131.523333 C165.154054,131.9442 167.331834,131.816473 171.35252,130.914058 C174.150503,130.286079 177.316199,129.574988 178.387443,129.333856 C179.458664,129.092722 180.608205,128.288273 180.941904,127.546188 C181.422127,126.478251 182.317664,126.127251 185.237133,125.862682 C187.265825,125.67884 189.576947,125.180063 190.373007,124.75429 C191.584665,124.106223 191.753391,123.623315 191.409027,121.788937 C191.03047,119.771793 191.197548,119.471509 193.515902,118.009006 C194.900909,117.135212 196.540149,115.914576 197.158612,115.296476 C197.874713,114.580797 198.147759,113.633758 197.910463,112.688775 C197.625744,111.554673 197.982787,110.888115 199.426248,109.861031 C200.464878,109.121909 202.218326,107.153748 203.32278,105.487348 C204.519469,103.68178 205.330873,101.616949 205.330873,100.377253 C205.330873,99.233107 204.899674,97.9392456 204.372395,97.5020137 C203.845253,97.0647779 200.023197,95.8748007 195.878988,94.8576198 C191.734769,93.8404389 186.980282,92.2218233 185.313462,91.2607043 C183.64662,90.2995776 182.170979,89.4197489 182.034158,89.3055273 C181.897292,89.191302 182.700776,88.0559511 183.819557,86.7825208 C185.253543,85.1502781 185.85365,83.8103762 185.85365,82.240828 C185.85365,81.0163319 185.366149,78.992753 184.770299,77.7439878 C183.871145,75.8595735 183.813423,75.0515431 184.431108,72.9917243 C184.959074,71.2306354 184.981458,69.8090623 184.508467,68.096443 C183.976427,66.1707172 184.044998,65.3928043 184.847658,64.2473407 C185.401029,63.4577387 185.853833,61.7311839 185.853833,60.4104985 C185.853833,58.7958465 185.32216,57.3778145 184.230752,56.0815048 C183.338052,55.0212267 182.60767,53.8673599 182.60767,53.5173353 C182.60767,53.1674248 183.630233,50.6384748 184.880021,47.8976595 C186.129809,45.1568594 187.152372,42.223243 187.152372,41.3785272 C187.152372,40.2130095 186.643631,39.6844125 185.042338,39.1862375 C183.881815,38.8252894 180.15682,37.8027438 176.764549,36.9140703 C173.372272,36.0253967 167.756917,35.0961732 164.285968,34.8490656 C158.076639,34.4069449 157.947348,34.3639542 156.287486,32.1890762 C155.359554,30.973246 152.07618,27.7730314 148.991085,25.0774988 C145.905998,22.3819624 141.03251,18.7311591 138.161105,16.964614 C134.800994,14.8973934 130.0481,12.7967581 124.824897,11.0704051 C117.455512,8.63471246 115.95442,8.36103605 108.497335,8.09361919 C102.704694,7.88572898 98.4740988,8.10763464 94.1377911,8.84636449 C90.7566838,9.42236504 85.2491647,10.5964878 81.8988455,11.4555389 C78.5485446,12.3145899 75.3318785,13.2083655 74.750745,13.4416899 C73.932521,13.7702782 73.5984568,13.3564016 73.2701144,11.6070017 C73.0371209,10.3646103 72.4197566,7.91337152 71.8987024,6.15981384 C71.3776483,4.40626378 70.4027831,2.33947724 69.7323658,1.56695191 C68.6075883,0.270836444 67.9050372,0.162360401 60.6364072,0.162360401 C54.092172,0.162360401 52.7593847,0.325702705 52.7593847,1.1288214 C52.7593847,1.6603502 53.6279151,5.18649551 54.689432,8.96467533 C55.7841813,12.8610251 57.2515372,20.8517535 58.0797858,27.4276328 C58.8829498,33.8040785 59.394254,39.1669223 59.216007,39.3450644 C59.0379432,39.523256 57.5851437,39.3673194 55.9879247,38.9985808 C54.3907516,38.6300135 51.331006,38.5002154 49.1885181,38.710352 C46.8124416,38.9433718 43.7213082,39.862277 41.2632651,41.0661745 C38.6197769,42.3609193 36.124659,44.2831802 34.0104086,46.653871 C30.7873753,50.267848 30.7873753,50.267848 29.163775,45.1313608 C28.2707963,42.3063005 27.0408924,38.1130751 26.4306599,35.8130822 C25.8204227,33.5130779 24.9614272,29.8793932 24.5217789,27.7382079 C24.0821122,25.5970149 22.3470838,19.0274636 20.6661291,13.1391982 C18.9851744,7.25092901 17.3798351,1.99528569 17.0987094,1.45998745 C16.6936942,0.68881379 14.883197,0.449016625 8.37928018,0.305130712 C0.170985757,0.123512347 0.170985757,0.123512347 0.170985757,29.3259826 L0.171022834,29.3260169 Z M58.4988812,42.281822 C59.2700487,42.6942899 59.9010081,43.3387495 59.9010081,43.7139037 C59.9010081,44.0889438 60.8192499,45.6739352 61.9416014,47.235777 C63.0639071,48.7976188 65.0516763,50.8162479 66.3588663,51.7215488 C67.6660563,52.6268612 69.3563353,53.3675747 70.115052,53.3675747 C70.8737688,53.3675747 71.9536871,53.8263801 72.5147942,54.3871886 C73.075947,54.9479591 73.5350221,55.6555093 73.5350221,55.9595011 C73.5350221,56.2633406 72.80464,57.3797034 71.9119405,58.4399815 C71.019241,59.5002596 70.2888588,60.9997724 70.2888588,61.7722787 C70.2888588,62.544785 69.9968158,62.996356 69.6396353,62.7757868 C69.2825921,62.5553318 68.9904118,61.5160712 68.9904118,60.4665303 C68.9904118,59.3552695 68.6516785,58.5717595 68.178871,58.5905686 C67.732567,58.6083459 63.0518409,59.0066156 57.7773565,59.4756631 C50.5213786,60.1209223 47.8891419,60.5982321 46.9619282,61.4368368 C46.2879406,62.0464197 45.3896108,63.3820952 44.9656449,64.4049454 C44.2890939,66.0373024 44.4125484,66.6644759 45.9755736,69.5345296 C46.9549705,71.3329322 48.3022134,73.2981038 48.9694721,73.9015604 C49.6687275,74.5339882 51.6633629,75.1214875 53.6783589,75.288485 C56.4485562,75.518078 59.3773493,74.9640849 67.7892408,72.618657 C73.6275604,70.9909071 81.3259422,68.9299765 84.8967585,68.038771 C88.4675564,67.1475846 92.8820062,66.2236154 94.7066113,65.9854935 C96.7823596,65.7147794 98.5441388,65.8309085 99.413594,66.2958058 C100.177804,66.7045804 100.803087,67.5715892 100.803087,68.2225216 C100.803087,68.873454 99.67538,70.6880766 98.2970557,72.2549747 C96.9187318,73.8218805 95.0147762,76.6368129 94.0660484,78.5103529 C92.3411178,81.9167824 92.3411178,81.9167824 88.7603776,81.9167824 C86.7909641,81.9167824 84.166477,82.3398352 82.9281598,82.8569335 C81.6192303,83.403502 80.6766821,84.2558137 80.6766821,84.8928106 C80.6766821,85.8548169 81.132141,85.9246847 84.4097974,85.4654987 C86.4630245,85.1776507 89.069902,84.9693036 90.2028732,85.0021243 C91.3358445,85.0349565 92.8696653,85.3863785 93.6113996,85.7830833 C94.4114052,86.2109716 94.95997,87.1488382 94.95997,88.0886847 C94.95997,89.0313639 94.3479156,90.0737848 93.4487619,90.6625939 C92.6175837,91.2068626 90.2073134,91.9662063 88.0925421,92.3500188 C85.0837667,92.8960923 83.7205484,93.5570004 81.8244157,95.3888977 C79.4012827,97.7299356 79.4012827,97.7299356 76.905377,95.0280216 C75.5326375,93.5419646 73.3456565,91.8818813 72.0454151,91.3389414 C70.7451829,90.7960015 68.3237893,90.3517752 66.6644907,90.3517752 C64.6258199,90.3517752 62.618276,90.9116547 60.4730553,92.0785394 C58.7270684,93.0282549 56.6325067,94.7071397 55.8185352,95.8093956 C55.0045683,96.9116477 53.9832875,98.6301725 53.5490223,99.6283409 C53.1146198,100.626511 52.7594534,102.352742 52.7594534,103.464409 C52.7594534,104.57607 53.4872722,106.726774 54.3768132,108.243742 C55.2663542,109.760716 56.9807565,111.611244 58.1865554,112.356031 C59.5516963,113.19922 61.4524476,113.705025 63.2239036,113.696504 C64.7886225,113.688977 68.1139486,112.960299 70.6135164,112.077218 C73.1130932,111.194138 75.5050216,110.470345 75.9289234,110.468792 C76.4474142,110.46691 76.5789708,111.209212 76.3308258,112.736919 C76.0950858,114.187418 76.2218819,115.007876 76.6814605,115.007876 C77.0769545,115.007876 77.8649213,114.29982 78.4322996,113.434418 C79.339235,112.051091 79.6923873,111.940574 81.3550641,112.519819 C82.3952042,112.88218 83.5879572,113.064826 84.005652,112.925677 C84.4235756,112.786512 83.23215,111.572019 81.3584973,110.226771 C78.5484301,108.209177 78.0243548,107.533066 78.3657888,106.365821 C78.5932894,105.58755 78.9618221,103.945038 79.1844705,102.715794 C79.4449289,101.278279 80.5361536,99.5775126 82.2430946,97.9492045 C83.7920669,96.4715583 85.7722833,95.2736881 86.9995734,95.0719356 C88.8036943,94.7753684 89.4643157,95.0881567 91.652702,97.27521 C93.2997238,98.9212321 94.3643076,100.682462 94.6580442,102.24723 C95.0137142,104.140897 94.7752276,105.325917 93.5678266,107.670827 C92.538993,109.668797 91.2122114,111.091737 89.5967741,111.929549 C88.2624855,112.621564 87.3337613,113.451297 87.5329273,113.773394 C87.7320475,114.095509 88.462155,114.359027 89.1552308,114.359027 C89.8698664,114.359027 90.4154101,114.801959 90.4154101,115.382205 C90.4154101,115.944955 89.4871894,117.331861 88.3527076,118.464219 C87.2182258,119.596577 85.9445429,121.690058 85.5223622,123.116401 C84.7600293,125.691862 84.7059693,125.726896 77.6841797,128.196272 C73.7953844,129.563861 67.0577096,131.661684 62.7116016,132.858102 C58.3655164,134.054522 52.7414685,135.237074 50.2137539,135.485994 C47.6860255,135.734929 45.6179124,135.755528 45.6179124,135.531837 C45.6179124,135.308107 46.6044044,133.737497 47.810066,132.041562 C49.0157733,130.345629 50.4765376,128.023611 51.056275,126.881523 C51.6359667,125.739434 52.1102848,124.051385 52.1102848,123.130301 C52.1102848,122.209218 51.6580301,121.282092 51.1048879,121.070025 C50.5519287,120.857947 48.1183132,121.597072 45.6968831,122.712502 C43.2754437,123.827932 40.974511,124.740557 40.5836664,124.740557 C40.1928414,124.740557 41.2970478,122.037269 43.0375005,118.733251 C44.7779533,115.429232 46.6548651,110.988186 47.2084148,108.864257 C47.761969,106.740327 48.2148646,102.572915 48.2148646,99.6033461 C48.2148646,95.1524782 48.0239838,94.1308848 47.1277139,93.7871851 C46.4100571,93.51194 45.6929039,93.8761667 45.0176803,94.8588439 C44.4551084,95.6775696 42.564693,97.9182186 40.8167606,99.838053 C38.3672385,102.528488 37.2066879,103.328675 35.7541585,103.328675 C34.5750966,103.328675 33.3033043,102.71798 32.3568332,101.697342 C31.524799,100.800105 30.6749584,99.2210917 30.4682991,98.1884142 C30.261626,97.1557367 30.3409994,95.4450593 30.6446692,94.3869019 C30.948339,93.3287446 31.6802821,91.7255075 32.2712344,90.824155 C32.8621866,89.9227911 34.1907397,88.8355024 35.2235786,88.4079492 C36.6840271,87.8033923 37.6283605,87.8043442 39.4717515,88.4124916 C41.1491587,88.9657498 42.0442659,88.9921778 42.5338408,88.5027296 C43.0234156,88.0134642 42.9887962,87.5261406 42.4154215,86.8357243 C41.9698041,86.2991315 41.0472915,85.683114 40.3653757,85.4668092 C39.3425751,85.1424091 39.1195239,84.4280816 39.0912305,81.3864004 C39.0723704,79.358481 38.5256649,75.0714461 37.8763361,71.8596643 C37.2270074,68.6478749 35.7350292,63.3787758 34.5608286,60.1505455 C33.1286003,56.2129071 32.5644675,53.7293463 32.8468612,52.6048926 C33.07839,51.6830176 34.6237827,49.4215072 36.2810901,47.579284 C37.9384022,45.737095 40.2040105,43.7597165 41.315777,43.1851438 C42.4275454,42.6105901 44.0694542,41.899004 44.9644699,41.6038837 C45.8595039,41.3088014 48.9554344,41.1718071 51.8443485,41.2996634 C54.7332856,41.4275958 57.7278799,41.8694196 58.4990474,42.2818875 L58.4988812,42.281822 Z M35.0885082,92.136101 C34.54296,92.760613 33.7414759,94.7906152 33.3074258,96.6472145 C32.8733895,98.5038187 32.7073782,100.328695 32.938527,100.702495 C33.1696896,101.076316 34.0864849,101.38214 34.9758474,101.38214 C35.8652099,101.38214 37.4548348,100.936668 38.5083456,100.392209 C39.5618564,99.84775 40.4238227,98.9890378 40.4238227,98.4839712 C40.4238227,97.978897 40.1376847,97.3889343 39.7880021,97.1729341 C39.4382829,96.9569339 38.557494,97.0983069 37.8306548,97.4870539 C36.7893383,98.0440093 36.428949,97.9850728 36.1310057,97.2091055 C35.9230509,96.6674754 36.3617563,95.2397761 37.1058892,94.0364421 C37.850045,92.8331005 38.2680006,91.6577707 38.0346775,91.4245872 C37.8013635,91.1914151 37.2661924,91.0006245 36.8454307,91.0006245 C36.4246691,91.0006245 35.6340473,91.5115889 35.0884991,92.1361048 L35.0885082,92.136101 Z M89.5495804,104.410085 C89.3115516,104.647979 89.1165511,105.523931 89.1165511,106.356619 C89.1165511,107.405113 89.4914464,107.870589 90.3355331,107.870589 C91.0059503,107.870589 91.8874808,107.469627 92.2944642,106.979562 C92.7014019,106.489497 92.8520009,105.613556 92.6290777,105.033029 C92.4061546,104.452501 91.7194416,103.977521 91.1029928,103.977521 C90.486544,103.977521 89.787426,104.172161 89.5493515,104.410085 L89.5495804,104.410085 Z M147.941314,55.1425687 C148.033779,57.0109534 148.26723,58.7953443 148.46072,59.1079259 C148.65389,59.4205227 149.254088,62.4069835 149.794231,65.7445846 C150.439655,69.7328249 150.556884,72.0322543 150.136168,72.4527255 C149.78416,72.8045397 149.496008,73.6180529 149.496008,74.2604184 C149.496008,74.9027839 149.802699,75.428335 150.177503,75.428335 C150.552398,75.428335 151.793993,74.9439432 152.93676,74.351913 C154.099256,73.7496406 156.632431,73.2526079 158.687366,73.2235565 C161.432524,73.1847199 162.703369,73.4820867 163.718969,74.4005349 C164.466288,75.0764446 165.077747,76.2778672 165.077747,77.070363 C165.077747,78.20306 163.795962,79.2571318 159.085281,81.998347 C155.789407,83.9162674 152.529877,85.7119666 151.841832,85.9887994 C151.153379,86.2659864 149.566414,86.1544262 148.312643,85.7409303 C147.059651,85.3276629 144.742074,83.7989465 143.162451,82.3437912 C141.582855,80.888674 139.59353,78.3235906 138.741707,76.6436474 C137.889885,74.9636965 137.012382,72.4605576 136.791656,71.0810957 C136.503275,69.2797613 136.865354,67.1199991 138.075364,63.4169834 C139.195061,59.9907929 139.629326,57.562841 139.369783,56.180036 C139.061261,54.535952 139.354847,53.6068427 140.768751,51.7542059 C141.753046,50.4645251 143.315888,49.0053719 144.241774,48.5116898 C145.847828,47.655304 145.96762,47.7089519 146.849288,49.6798729 C147.357525,50.8160347 147.848963,53.2743554 147.941337,55.142721 L147.941314,55.1425687 Z M175.734246,53.7733871 C177.437571,54.3534236 179.826876,55.8230474 181.043803,57.0392432 C182.260725,58.255439 183.251932,59.7517154 183.246439,60.3643442 C183.241243,60.976973 182.957142,61.9161723 182.615662,62.4514705 C182.101932,63.2568737 181.795699,63.281356 180.840197,62.5934907 C180.205163,62.1362846 177.640449,60.7753652 175.140872,59.5692213 C172.641295,58.3630774 169.500611,57.1717447 168.161557,56.9218576 C166.350936,56.5841312 165.726934,56.1480187 165.726934,55.2210796 C165.726934,54.5349658 166.383573,53.7109058 167.187699,53.3878764 C167.991137,53.0649993 169.545969,52.782558 170.64287,52.7599414 C171.73977,52.7372943 174.030889,53.1933886 175.734223,53.7734252 L175.734246,53.7733871 Z M174.212189,62.0310335 C176.195976,62.9078276 178.750299,64.6851746 179.888484,65.9807075 C181.363301,67.6594019 181.957916,68.9822461 181.957916,70.5845922 C181.957916,71.8211962 181.701577,72.8329666 181.388157,72.8329666 C181.0746,72.8329666 180.481267,72.4270096 180.069249,71.9308145 C179.657276,71.4346194 177.859975,70.4009178 176.075355,69.6336658 C174.29078,68.8664139 170.92622,68.0609346 168.598578,67.843716 C165.335203,67.5391149 164.150689,67.140811 163.423608,66.103416 C162.905025,65.363464 162.480739,64.10965 162.480739,63.3171162 C162.480739,62.5245824 163.13811,61.4017087 163.941549,60.8218626 C164.954178,60.0910105 166.200488,59.8702128 168.003831,60.1022046 C169.434658,60.2861074 172.22843,61.1542204 174.212212,62.0310145 L174.212189,62.0310335 Z M70.2888085,68.8911932 C69.7531979,69.1996018 65.9707833,70.3758567 61.8834491,71.505165 C57.794435,72.6349683 53.7793014,73.3897697 52.9564131,73.1833644 C52.1338863,72.9769972 51.4608599,72.5162501 51.4608599,72.15941 C51.4608599,71.802646 52.1310025,71.6786734 52.9500504,71.8841268 C53.9690882,72.1396109 54.8207277,71.8365329 55.6476489,70.9232248 C56.5127919,69.9678056 57.7033936,69.5726238 59.83929,69.5319215 C61.4800865,69.5006504 64.2833331,69.247881 66.0687458,68.9697803 C67.8541448,68.6918318 69.7531567,68.4343297 70.2888131,68.3975111 C71.1544597,68.3381139 71.1544597,68.3929687 70.2888131,68.8912313 L70.2888085,68.8911932 Z M175.29998,72.9216398 C177.640215,74.0391068 180.059929,75.7819577 181.022943,77.0437599 C181.94059,78.2461344 182.715145,80.0657829 182.744257,81.0874909 C182.773343,82.1091989 182.455419,83.583011 182.037999,84.3626373 C181.620533,85.1422637 180.640907,86.1213656 179.861134,86.5384406 C178.596148,87.2150356 178.195436,87.0109148 176.142895,84.6445456 C174.877635,83.1858493 172.482928,81.4138709 170.821373,80.7068652 C168.004577,79.5082602 167.80477,79.2649601 167.865971,77.1077375 C167.914034,75.418306 167.456744,74.2985926 166.170931,72.9574913 C165.202566,71.9473582 164.618343,70.9129331 164.872667,70.6587816 C165.127175,70.4044397 166.664887,70.3743604 168.290257,70.5910078 C169.915628,70.8080361 173.069985,71.8567013 175.299971,72.9215103 L175.29998,72.9216398 Z M72.8411591,94.2131092 C73.9531197,95.0044017 75.4722926,96.845616 76.2170938,98.3046926 C77.2056457,100.241236 77.475671,101.6701 77.2171352,103.596392 C77.0019938,105.198716 76.3130378,106.680272 75.462863,107.368278 C74.6927941,107.991454 71.6797617,109.253915 68.767269,110.173734 C65.2990981,111.269033 62.757175,111.712342 61.4008961,111.458415 C60.2351959,111.240169 58.6143572,110.220703 57.6927281,109.12607 C56.7922011,108.056528 55.785614,106.204866 55.4558526,105.011271 C55.1262743,103.817669 55.0127529,102.023276 55.2040914,101.023723 C55.3954299,100.024171 56.8008525,97.9579824 58.3275783,96.432192 C59.8543041,94.9064074 62.0746091,93.3633366 63.2615717,93.0031573 C64.4485571,92.6429666 66.6347142,92.4441573 68.1196751,92.5613411 C69.6046542,92.6785364 71.7294273,93.42182 72.8413559,94.2131126 L72.8411591,94.2131092 Z M66.5313365,103.450337 C66.0983072,103.883038 65.7441478,104.771788 65.7441478,105.425344 C65.7441478,106.078907 66.2050539,106.790383 66.7683582,107.006417 C67.3316625,107.222456 68.2762248,106.915836 68.8673601,106.325032 C69.6767953,105.5161 69.7731512,104.98304 69.2573611,104.166184 C68.8806348,103.569604 68.2905065,102.987473 67.9455479,102.872555 C67.6004061,102.757644 66.9640911,103.017621 66.5311534,103.450337 L66.5313365,103.450337 Z" id="path4115" fill="#000000"></path>
                    <path d="M0.171022834,29.3260169 C0.171022834,58.5284605 0.171022834,58.5284605 1.63181051,59.4578097 C2.43524371,59.9689302 5.29556099,60.9957022 7.98807117,61.7394618 C10.6805795,62.4832213 14.7122227,63.282761 16.9472759,63.5162377 C20.1254042,63.8482528 21.6053198,64.3940217 23.7381034,66.0207435 C25.2380052,67.1647488 27.6952312,68.7275425 29.1986,69.4936141 C30.7019715,70.2596857 32.6427758,70.8864404 33.511503,70.8864404 C34.4146849,70.8864404 35.2801484,71.3726217 35.5327336,72.0219169 C35.775706,72.6464251 36.1409566,75.6908363 36.3444529,78.7872429 C36.7144504,84.4170809 36.7144504,84.4170809 34.3632204,85.3988862 C32.959734,85.9849386 31.1643424,87.5825329 29.909061,89.3623488 C28.7524425,91.0022598 26.4485802,93.2146121 24.7893603,94.2786787 C23.130144,95.3427529 20.1625316,97.9003164 18.1946703,99.962164 C16.2268086,102.024012 13.9958746,104.927235 13.2370334,106.413784 C12.1379172,108.566918 11.8586179,110.276465 11.8636668,114.81983 C11.8689254,119.559585 12.1399175,121.07114 13.4677748,123.767296 C14.346545,125.551619 15.5196196,127.625823 16.0746065,128.376639 C17.0435439,129.687469 16.8574237,129.941042 11.3943313,134.753082 C56.5881509,151.859025 90.2518706,144.395684 88.4675381,123.464505 C88.4675381,123.119537 87.6792509,122.217773 88.9290393,120.968746 C90.7061988,119.192663 91.2013903,118.175231 91.2013903,116.299798 C91.2013903,114.709914 91.8998216,112.814035 93.2739801,110.673945 C94.8672166,108.192642 95.9502018,106.525468 95.9502018,104.134403 C95.9502018,101.779544 94.6528534,100.433314 93.1179339,97.965621 C91.1768092,94.8449187 91.9505859,94.4873552 93.1934623,94.093126 C93.9074571,93.8666552 95.0546643,92.75849 95.7428879,91.6305371 C96.4310657,90.5025919 96.9952397,88.9451744 96.9965672,88.1696107 C96.9978672,87.3940584 96.2438469,85.8626386 95.3209361,84.7664176 C93.6428789,82.773375 92.0332093,83.578207 93.4096107,81.3525634 C94.166588,80.1284861 97.3083391,77.2331543 98.9157017,75.1644412 C100.523083,73.0957052 101.997351,70.7694595 102.191847,69.9949657 C102.38639,69.2204795 102.092516,67.7110672 101.538504,66.6406991 C100.984675,65.5703692 99.719232,64.4130756 98.7264231,64.0689907 C97.6521808,63.6966159 94.5647644,65.4662718 91.98835,65.7781832 C89.6072383,66.066412 85.4745276,66.5622644 83.2964269,67.1263093 C80.6985716,67.7990588 78.2371297,69.8170025 76.1412771,69.5391683 C74.0224547,69.2581739 73.6746123,65.3867823 72.7316521,64.383655 C71.3097505,62.8710063 69.2976749,63.0721952 71.0779929,60.957731 C72.6903175,59.0427424 74.2282581,57.5099139 73.8587642,54.3681141 C73.450911,50.899013 75.6643956,48.4845282 81.0732152,45.9870244 C84.0482545,44.6133879 88.0499258,43.0242843 89.9658332,42.4556704 C91.881736,41.8870564 94.2091998,41.4218164 95.1379927,41.4218164 C96.0895127,41.4218164 100.256294,43.5001473 104.683276,46.1829171 C109.004414,48.8015341 115.827574,52.7861268 117.386676,54.0539182 C118.945764,55.3217057 122.441148,57.6998021 125.154173,59.3385443 C127.867198,60.9772978 131.625622,62.6730498 133.506232,63.1068779 C136.925516,63.8956803 134.712214,65.3041174 134.295572,68.8475526 C134.009022,71.2859601 134.188917,73.3198916 134.872517,75.3696395 C135.419022,77.0078981 137.070988,79.9360849 138.543562,81.8767171 C141.220974,85.4051393 141.220974,85.4051393 139.683949,86.64897 C138.888292,101.339399 172.334261,97.4636804 182.008735,86.3801596 C183.442721,84.7479169 184.042828,83.8104311 184.042828,82.2408791 C184.042828,81.0163829 183.555327,79.596409 182.959477,78.3476628 C182.060323,76.4632486 181.398969,73.8443536 182.016654,71.7845348 C182.54462,70.0234459 182.76823,68.1994568 182.295422,66.4868375 C183.421481,63.5754609 186.605849,59.8926059 181.816481,54.0694871 C180.923781,53.009209 183.686334,57.0005105 182.607881,53.5173977 C181.957513,51.416869 182.221999,50.6385372 183.471788,47.8977219 C184.721576,45.1569218 185.744139,43.2293418 185.744139,42.384626 C185.744139,41.2191082 185.235398,40.6905112 183.634105,40.1923362 C182.473578,39.831384 178.748583,38.8087241 175.356311,37.9200506 C171.964035,37.0313771 168.561962,38.3154227 165.091013,38.0681628 C158.881671,37.6260599 160.160828,44.4241229 158.500966,42.2492449 C157.572833,41.0336088 153.484633,34.6140774 150.399538,31.9185448 C147.314451,29.2230084 142.440963,25.5722051 139.569558,23.80566 C136.209447,21.7384394 131.456553,19.6378041 126.23335,17.9114511 C118.863965,15.4757585 117.362873,15.202082 109.905788,14.9346652 C104.113147,14.726775 99.882552,14.9486806 95.5462441,15.6874105 C92.1651368,16.263411 86.6576176,17.4375338 83.3072984,18.2965849 C79.9569975,19.1556359 76.7403315,20.0494115 76.1591979,20.2827359 C75.340974,20.6113242 75.0069097,20.1974476 74.6785673,18.4480477 C74.4455738,17.2056563 73.8282095,14.7544175 73.3071554,13.0008598 C72.7861012,11.2473098 71.811236,9.18052324 71.1408188,8.40799791 C70.0160412,7.11188244 69.3134901,7.0034064 62.0448601,7.0034064 C55.5006249,7.0034064 54.1678377,7.1667487 54.1678377,7.9698674 C54.1678377,8.5013962 55.0363681,12.0275415 56.0978849,15.8057213 C57.1926342,19.7020711 58.6599901,27.6927995 59.4882387,34.2686788 C60.2914028,40.6451245 59.3944004,39.1669223 59.2158788,39.3450644 C59.037815,39.523256 57.5850155,39.3673194 55.9877966,38.9985808 C54.3906234,38.6300135 51.3308779,38.5002154 49.1883899,38.710352 C46.8123134,38.9433718 43.7211801,39.862277 41.2631369,41.0661745 C38.6196488,42.3609193 36.1245308,44.2831802 34.0102804,46.653871 C30.7872471,50.267848 30.7872471,50.267848 29.1636468,45.1313608 C28.2706681,42.3063005 27.0407642,38.1130751 26.4305317,35.8130822 C25.8202945,33.5130779 24.961299,29.8793932 24.5216507,27.7382079 C24.0819841,25.5970149 22.3469557,19.0274636 20.666001,13.1391982 C18.9850463,7.25092901 17.3797069,1.99528569 17.0985812,1.45998745 C16.6935661,0.68881379 14.8830688,0.449016625 8.37915201,0.305130712 C0.170857587,0.123512347 0.170857587,0.123512347 0.170857587,29.3259826 L0.171022834,29.3260169 Z M70.2888268,68.8911894 C69.7532163,69.1995979 65.9708016,70.3758529 61.8834674,71.5051612 C57.7944534,72.6349645 53.7793198,73.3897659 52.9564314,73.1833606 C52.1339046,72.9769934 51.4608782,72.5162463 51.4608782,72.1594062 C51.4608782,71.8026422 52.1310208,71.6786696 52.9500687,71.884123 C53.9691065,72.1396071 54.820746,71.8365291 55.6476672,70.923221 C56.5128103,69.9678017 57.7034119,69.57262 59.8393083,69.5319177 C61.4801048,69.5006466 64.2833514,69.2478772 66.0687641,68.9697765 C67.8541631,68.691828 69.7531751,68.4343259 70.2888314,68.3975073 C71.154478,68.3381101 71.154478,68.3929649 70.2888314,68.8912275 L70.2888268,68.8911894 Z M72.841182,94.2131053 C73.9531426,95.0043979 76.6795792,96.0407839 77.4243621,97.4998609 C78.4129139,99.4364038 77.4756298,101.670097 77.2170024,103.59639 C77.001861,105.198713 76.312905,106.680269 75.4627303,107.368276 C74.6926614,107.991451 71.0759971,110.662364 68.1635136,111.582182 C64.6953426,112.677482 60.3425561,112.114754 58.9862772,111.860816 C57.820577,111.642569 55.1937005,106.598959 54.2720714,105.504326 C56.118305,104.836172 53.6261894,99.1882774 57.925035,94.8225199 C62.0199083,92.3672566 69.5864313,90.2178977 73.646058,93.0058565 L72.841182,94.2131053 Z M91.7362364,97.3589182 C93.2886875,98.9104035 94.9721003,100.102593 95.2532947,101.600299 C95.588366,103.386392 96.1561104,110.535399 92.8929647,110.891611 C92.1237197,112.479671 89.7710799,111.230593 88.89431,111.804679 C88.0175859,112.378764 87.5041761,113.006448 86.5237264,113.199531 C85.1571666,113.468646 82.9015692,112.96316 80.1642428,111.033947 C77.7558492,109.336561 71.7986022,111.327202 71.86937,110.478994 C71.9270462,109.787299 77.2236398,106.459973 77.4919257,105.052299 C77.8260814,103.29777 78.9877077,99.5122617 80.7472439,97.8395204 C82.1588919,96.4974634 85.0537339,95.4646185 85.4587582,95.2983863 C85.8638649,95.1321502 88.8990065,94.1682822 89.7444207,94.1401066 C90.7039513,94.1081185 90.1966753,95.8201031 91.736218,97.3589361 L91.7362364,97.3589182 Z M17.4135235,144.144988 C17.2135335,144.46836 16.4659172,144.580286 15.75211,144.393733 C15.0383029,144.207165 14.454281,143.942611 14.454281,143.805803 C14.454281,143.668999 15.2019157,143.557058 16.1156944,143.557058 C17.0294732,143.557058 17.6134951,143.821642 17.4135235,144.144988 Z" id="path4117" fill="#E7B188"></path>
                    <path d="M0.171022834,29.2622563 C0.171022834,58.4009431 0.171022834,58.4009431 1.95643005,59.1094184 C2.93840406,59.4990793 5.91996175,60.4084657 8.58211228,61.1302559 C11.2442628,61.8520461 15.2849635,62.6333097 17.5614456,62.8664056 C20.9809991,63.2166968 22.1617693,63.6753498 24.3539956,65.5057736 C25.8134187,66.72433 27.8573078,68.1605619 28.8959739,68.6973451 C29.9346399,69.2341283 31.9920692,69.8793494 33.4680399,70.1311783 C35.5781559,70.491369 36.2474196,70.932774 36.5999173,72.1976298 C36.8464602,73.0823816 37.0773344,76.3473962 37.1129289,79.4532683 C37.1776544,85.1002934 37.1776544,85.1002934 34.4160856,86.3211192 C32.5554238,87.1436942 31.2347897,88.320863 30.3678935,89.9296324 C29.6602477,91.242855 27.6161755,93.2912589 25.825517,94.4816294 C24.0348585,95.6719988 20.9616373,98.2555563 18.9961384,100.222862 C17.0306386,102.190173 14.7664173,105.112673 13.9645372,106.717312 C12.8181998,109.01124 12.5065697,110.74426 12.5065697,114.825304 C12.5065697,119.225576 12.7808064,120.548283 14.3077793,123.513641 C15.298446,125.43747 16.5401139,127.677577 17.0670456,128.491656 C17.9851913,129.910142 17.8634304,130.11286 14.144162,133.357993 C12.0096435,135.2204 9.4044926,137.501512 8.35493487,138.427133 C7.17807479,139.465027 6.59288102,140.490923 6.82816332,141.103693 C7.10844221,141.83362 8.68179416,142.219858 12.7568698,142.559103 C18.3040601,143.020901 18.3040601,143.020901 18.4891994,149.238197 C18.5945729,152.777249 18.9635083,155.551189 19.3456223,155.677643 C19.7148416,155.799826 22.0520874,154.037603 24.5395335,151.761589 C29.0621628,147.623385 29.0621628,147.623385 32.0800872,150.334195 C33.7399443,151.82514 37.2945727,154.159245 39.9792596,155.521095 C43.7882785,157.453282 45.841545,158.067335 49.3266206,158.31654 C52.6267066,158.55253 55.1996009,158.271421 59.1814059,157.239932 C62.1451846,156.472151 66.0028851,155.118355 67.7540766,154.231494 C70.7741125,152.702054 70.9380778,152.683466 70.9380778,153.87058 C70.9380778,154.558929 70.5187809,157.264662 70.006607,159.883325 C69.4942959,162.501988 68.4717791,166.36912 67.7342561,168.47696 C66.9967789,170.584799 66.3933759,172.701658 66.3933759,173.181085 C66.3933759,173.794285 67.3537763,174.052777 69.6321695,174.052777 C71.7358404,174.052777 73.3751721,173.654815 74.3095815,172.9173 C75.1008441,172.292792 76.6380066,170.88801 77.7255234,169.79552 C78.8130403,168.703069 81.1636203,166.03899 82.949001,163.875321 C84.7344,161.711668 86.5678625,159.393713 87.0232756,158.724312 C87.7243161,157.693988 87.7935276,158.066435 87.474157,161.151365 C87.2667974,163.155648 86.6785001,166.36743 86.1668297,168.288659 C85.6551594,170.209892 85.2330703,172.31127 85.228859,172.958395 C85.2230136,173.895728 85.6495291,174.093643 87.3268538,173.931671 C89.0334745,173.766806 89.8236385,173.129619 91.4958364,170.569561 C92.6305929,168.832231 95.0141307,164.013338 96.7925582,159.860896 C98.5711322,155.708464 100.819973,149.399086 101.790151,145.840064 C103.135435,140.90497 103.479048,138.434647 103.23787,135.431953 C103.063944,133.266512 102.430773,130.546134 101.830826,129.386668 C101.230884,128.227202 99.804689,126.708591 98.6615099,126.011977 C97.1435179,125.086966 95.4011976,124.744752 92.2006397,124.742981 C88.3733199,124.74084 87.8182551,124.588803 87.8182551,123.542399 C87.8182551,122.883413 88.8408176,121.291994 90.0906061,120.005913 C91.8250119,118.22113 92.362957,117.120043 92.362957,115.354636 C92.362957,113.983719 94.9670834,108.820034 96.121523,106.775719 C97.3185789,104.655958 96.2332135,105.288516 96.1929317,103.925053 C96.1279315,101.706564 96.5302917,98.487248 95.934762,101.024691 C95.6070147,102.420286 94.3505431,107.729473 93.6339849,108.888173 C92.9174267,110.046871 91.177711,111.565224 89.7679855,112.262292 C88.35826,112.959356 87.3915427,113.716289 87.61973,113.944359 C87.848146,114.17243 88.5702887,114.359036 89.2249595,114.359036 C89.8796302,114.359036 90.4152407,114.819467 90.4152407,115.382213 C90.4152407,115.944964 89.48702,117.331869 88.3525382,118.464228 C87.2180564,119.596586 85.9443735,121.690067 85.5221929,123.116409 C84.7598599,125.69187 84.7057999,125.726905 77.6840103,128.19628 C73.7952151,129.563869 67.0575403,131.661692 62.7114322,132.858111 C58.3653471,134.05453 52.7412991,135.237083 50.2135845,135.486003 C47.6858561,135.734938 45.6177431,135.755536 45.6177431,135.531845 C45.6177431,135.308116 46.604235,133.737505 47.8098966,132.04157 C49.0156039,130.345637 50.4763683,128.023619 51.0561057,126.881531 C51.6357973,125.739443 52.1101154,124.051393 52.1101154,123.130309 C52.1101154,122.209226 51.6578608,121.2821 51.1047185,121.070033 C50.5517593,120.857955 48.1181439,121.597081 45.6967137,122.712511 C43.2752743,123.827941 40.9743416,124.740565 40.583497,124.740565 C40.1926721,124.740565 41.2968784,122.037278 43.0373312,118.73326 C44.7777839,115.429241 46.6546958,110.988194 47.2082454,108.864265 C47.7617997,106.740336 48.2146952,102.572923 48.2146952,99.6033545 C48.2146952,95.1524866 48.0238144,94.1308931 47.1275445,93.7871935 C46.4098877,93.5119484 45.6927345,93.8761751 45.0175109,94.8588523 C44.454939,95.677578 42.5645236,97.918227 40.8165913,99.838062 C38.3670691,102.528496 37.2065186,103.328683 35.7539891,103.328683 C34.5749273,103.328683 33.3031349,102.717988 32.3566638,101.69735 C31.5246296,100.800114 30.674789,99.2211 30.4681297,98.1884226 C30.2614566,97.1557451 30.3408301,95.4450676 30.6444999,94.3869103 C30.9481697,93.328753 31.6801128,91.7255159 32.271065,90.8241634 C32.8620172,89.9227994 34.1905703,88.8355108 35.2234092,88.4079576 C36.6838577,87.8034007 37.6281911,87.8043526 39.4715822,88.4124999 C41.1489893,88.9657582 42.0440965,88.9921862 42.5336714,88.502738 C43.0232463,88.0134726 42.9886268,87.526149 42.4152521,86.8357327 C41.9696347,86.2991399 41.0471221,85.6831224 40.3652063,85.4668176 C39.3424058,85.1424175 39.1193545,84.42809 39.0910611,81.3864088 C39.072201,79.3584894 38.5254956,75.0714545 37.8761668,71.8596727 C37.226838,68.6478832 35.7348598,63.3787842 34.5606593,60.1505539 C33.1284309,56.2129154 32.5642981,53.7293547 32.8466918,52.604901 C33.0782206,51.683026 34.6257739,49.4191169 36.2857225,47.573958 C37.9456712,45.7287992 40.505332,43.5767396 41.9738524,42.7915581 C44.1960067,41.6034237 45.6784958,41.3666726 50.8116593,41.3802273 C54.5368555,41.390024 57.5579306,41.7202382 58.4402163,42.2141107 C59.243655,42.6638161 59.9010264,43.3386977 59.9010264,43.71389 C59.9010264,44.0889301 60.8192682,45.6739215 61.9416197,47.2358014 C63.0639254,48.7976432 65.0516946,50.8162342 66.3588846,51.7215694 C67.6660746,52.6268818 69.3563536,53.3675953 70.1150704,53.3675953 C70.8737871,53.3675953 71.9537054,53.8264006 72.5148125,54.3872092 C73.0759653,54.9479797 73.5350404,55.6555298 73.5350404,55.9595216 C73.5350404,56.2633612 72.8046583,57.379724 71.9119588,58.4400021 C71.0192593,59.5002802 70.2888771,60.999793 70.2888771,61.7722993 C70.2888771,62.5448056 69.9968341,62.9963766 69.6396536,62.7758074 C69.2826105,62.5553524 68.9904301,61.5160917 68.9904301,60.4665508 C68.9904301,59.3552901 68.6516969,58.5717801 68.1788893,58.5905892 C67.7325853,58.6083665 63.0518592,59.0066361 57.7773748,59.4756837 C50.5213969,60.1209429 47.8891602,60.5982527 46.9619465,61.4368574 C46.2879589,62.0464402 45.3896291,63.3821157 44.9656632,64.404966 C44.2891122,66.037361 44.4125667,66.6644965 45.9755919,69.534554 C46.9549888,71.3329566 48.3022317,73.2981282 48.9694904,73.9015847 C49.6687458,74.5340126 51.6633812,75.1215119 53.6783772,75.2885094 C56.4485745,75.5181024 59.3773676,74.9641093 67.7892591,72.6186813 C73.6275787,70.9909315 81.3259605,68.9300009 84.8967768,68.0387954 C88.4675748,67.1476089 92.8820245,66.2236398 94.7066296,65.9855179 C96.7823779,65.7148037 98.5441571,65.8309329 99.413612,66.2958302 C100.177822,66.7046048 100.803105,67.5716136 100.803105,68.222546 C100.803105,68.8734784 99.675398,70.6881009 98.2970741,72.2549991 C96.9187501,73.8219049 95.0147945,76.6368373 94.0660667,78.5103773 C92.3411362,81.9168068 92.3411362,81.9168068 88.7603959,81.9168068 C86.7909824,81.9168068 84.1664953,82.3398595 82.9281781,82.8569579 C81.6192486,83.4034121 80.6767004,84.2556858 80.6767004,84.8927208 C80.6767004,85.854727 81.1321593,85.9245949 84.4098157,85.4654088 C86.4630428,85.1775608 89.0699203,84.9692137 90.2028916,85.0020345 C91.3358628,85.0348667 92.8696836,85.3862887 93.611418,85.7829935 C94.4114235,86.2108818 94.9599883,87.1487483 94.9599883,88.0885948 C94.2769373,91.2941095 90.7247239,91.8573853 88.0925604,92.3499351 C85.083785,92.8960086 83.7205667,93.5569167 81.824434,95.3888139 C79.401301,97.7298518 79.401301,97.7298518 76.9053953,95.0279379 C75.5327016,93.541877 73.3457206,91.8817938 72.0454792,91.3388538 C70.745247,90.7959139 68.3238534,90.3516876 66.6645548,90.3516876 C64.625884,90.3516876 62.6183401,90.9115671 60.4731194,92.0784518 C58.7271325,93.0281674 56.6325708,94.7070521 55.8185993,95.809308 C55.0046324,96.9115602 53.9833516,98.6300849 53.5490864,99.6282534 C53.1146839,100.626423 52.7595175,102.352655 52.7595175,103.464321 C52.7595175,104.575982 53.4873363,106.726686 54.3768773,108.243654 C55.2664183,109.760629 56.9808206,111.611156 58.1866195,112.355944 C59.5517604,113.199132 61.4525117,113.704938 63.2239677,113.696417 C64.7886865,113.68889 68.1140127,112.960211 70.6135804,112.077131 C73.1131573,111.194051 75.5050857,110.470258 75.9289875,110.468704 C76.4474782,110.466822 76.5790349,111.209124 76.3308899,112.736832 C76.0951499,114.187331 76.221946,115.007789 76.6815246,115.007789 C77.0770186,115.007789 77.8688305,114.293846 78.4409235,113.421248 C79.3174645,112.084274 79.7349762,111.931177 81.0951276,112.447979 C81.9828376,112.785286 83.1961893,113.061255 83.7914444,113.061255 C84.4224953,113.061255 83.7959898,112.346383 82.2883842,111.346755 C80.8664368,110.403778 79.0733935,109.064992 78.3038281,108.371667 C77.0317016,107.225575 77.7723831,107.199166 76.3882915,108.080963 C75.5509794,108.614392 71.4813281,109.79241 68.5741819,110.698781 C64.3493998,112.015963 62.841135,112.22329 61.059723,111.731717 C59.8339206,111.393458 58.2147756,110.459303 57.4616433,109.655815 C56.7085111,108.852323 55.7807024,107.372979 55.3998106,106.368363 C55.0189645,105.363758 54.7073299,103.670367 54.7073299,102.605284 C54.7073299,101.540197 55.1179295,99.880323 55.6194837,98.9166642 C56.1211751,97.9530056 57.2167483,96.5417623 58.0541061,95.7805567 C58.8914639,95.0193588 60.5115702,93.9244323 61.654383,93.3473885 C62.7971501,92.7703523 65.2805227,92.2993172 67.1729156,92.3006537 C69.4280552,92.3019513 71.3230847,92.7353803 72.6724745,93.5576812 C73.8048049,94.247713 75.5124783,96.1444903 76.4672941,97.7727461 C77.42211,99.4010023 77.3886029,100.719948 77.6225119,102.917019 C77.3135322,101.502086 79.3807207,101.739858 79.9989089,100.960068 C80.9272669,99.788995 81.0108059,98.7417536 81.9753717,97.7892433 C84.462269,95.3334622 85.2885035,94.9034265 87.5288533,94.8989108 C89.6609504,94.8943692 90.53859,95.2940659 92.1503424,97.0023484 C93.2446339,98.1621587 94.4616934,99.695056 94.8548986,100.408786 C95.3641887,101.333132 95.7768024,103.837618 95.7908553,103.136099 C95.8016993,102.594431 94.8789762,98.662536 93.9862767,97.3496027 C89.7286284,92.5965469 97.9896004,94.4373199 96.8997947,86.4386076 C96.4818711,85.430302 95.7284643,84.4475068 95.2255369,84.2546563 C94.7226096,84.0616154 94.3111402,83.4510426 94.3111402,82.8974302 C94.3111402,82.3438559 95.0888077,80.6557951 96.0392749,79.1462304 C96.9897422,77.6366277 98.9374585,75.0111153 100.367554,73.3117271 C102.194562,71.1406071 102.967652,69.6153936 102.967652,68.182063 C102.967652,66.8092261 102.454608,65.7253414 101.398676,64.8673565 C100.055965,63.7763517 99.1742971,63.6449164 95.2850075,63.955876 C92.7854306,64.1557704 88.5060072,64.9013195 85.7751579,65.6127533 C81.2481709,66.7920542 80.5361124,66.823847 77.7068061,65.972944 C76.0000482,65.4596151 74.0711453,64.557996 73.4203197,63.9693545 C72.7694941,63.3807511 72.2369963,62.475553 72.2369963,61.9578836 C72.2369963,61.440176 72.9673784,60.1491246 73.8600779,59.0888464 C74.7527774,58.0285683 75.4831596,56.5803046 75.4831596,55.8705081 C75.4831596,55.1607115 75.1805884,54.0151832 74.8110944,53.3249192 C74.365706,52.4935487 74.3542623,51.6680799 74.7764246,50.8795821 C75.1270593,50.2249183 78.6600931,48.3041804 82.6276896,46.6113297 C86.8275244,44.8193618 91.2499435,43.3989691 93.2124863,43.2116395 C96.3741952,42.9097037 96.9663375,43.1107404 102.751206,46.4474924 C106.143482,48.4041733 111.287811,51.7684612 114.183051,53.9236963 C117.078305,56.078939 121.29677,58.9256907 123.557444,60.2498371 C125.818122,61.5739758 129.292431,63.1381402 131.278145,63.7257156 C134.888539,64.7941037 134.888539,64.7941037 135.213127,70.3259174 C135.487776,75.0031157 135.826143,76.3007275 137.404411,78.7250319 C138.431048,80.3020276 140.037925,82.4191952 140.975209,83.42985 C142.679404,85.2673938 142.679404,85.2673938 140.756864,86.8078373 C139.699421,87.6550851 137.508228,89.056246 135.887573,89.9215414 C134.266917,90.786833 130.603677,91.9877797 127.747025,92.5903034 C124.890359,93.1928271 122.041837,93.8312594 121.416943,94.009036 C120.792071,94.1868088 120.280767,94.6306087 120.280767,94.9952542 C120.280767,95.3598997 121.547858,96.8890007 123.096556,98.3932348 C124.645254,99.897477 126.890048,102.961479 128.085049,105.202122 C129.328475,107.533591 131.627741,110.473768 133.460933,112.07641 C136.66416,114.876794 136.66416,114.876794 134.835824,118.234009 C133.450771,120.777253 133.169989,121.848706 133.677769,122.653203 C134.046255,123.237292 136.222617,124.315867 138.513786,125.050036 C142.414848,126.300087 142.667388,126.499201 142.4885,128.184234 C142.298535,129.976065 142.310436,129.981855 145.411494,129.570745 C147.229393,129.329741 151.631909,129.614832 155.988875,130.255702 C160.453745,130.912444 164.757036,131.184651 166.699891,130.933235 C168.486068,130.702092 170.970081,130.239605 172.219847,129.905487 C173.469635,129.571371 175.716215,128.996005 177.212295,128.6269 C178.904679,128.209357 180.077566,127.498706 180.316602,126.745985 C180.616427,125.801246 181.607267,125.439154 184.837867,125.093399 C187.113239,124.849874 189.502769,124.26487 190.14795,123.793387 C191.146573,123.063605 191.20608,122.684092 190.548022,121.240951 C189.808759,119.61948 189.92988,119.443085 193.333004,117.184939 C195.289784,115.88649 196.923165,114.500487 196.962669,114.104928 C197.002204,113.709373 196.989676,112.792924 196.934879,112.068377 C196.874456,111.270886 197.634638,110.160379 198.860852,109.25432 C199.974918,108.431136 201.74036,106.411955 202.78407,104.767258 C203.827735,103.122554 204.681663,101.149352 204.681663,100.382371 C204.681663,99.6153859 204.170405,98.5342807 203.545488,97.9799144 C202.920616,97.4255558 199.39779,96.3632216 195.717082,95.6191688 C191.017222,94.6691106 187.779646,93.5704299 184.84233,91.9287865 C182.541965,90.6431188 180.659798,89.389381 180.659798,89.1426998 C180.659798,88.8960111 181.520638,87.9392592 182.572771,87.0165808 C183.624904,86.0939062 184.687474,84.5357958 184.934017,83.5541428 C185.237504,82.3454478 184.919927,80.6545313 183.949951,78.3156752 C182.768459,75.4668179 182.65274,74.6097086 183.289238,73.4211706 C183.779211,72.5062253 183.9115,70.7105261 183.651774,68.5015213 C183.340048,65.8519873 183.495682,64.6371432 184.303241,63.4050739 C185.008904,62.3287662 185.22963,61.1169109 184.962855,59.7838245 C184.742221,58.6818541 183.843708,56.9272761 182.965977,55.8847219 C181.370039,53.9891897 181.370039,53.9891897 183.687433,48.6498496 C184.961985,45.7131911 186.137252,42.8521193 186.299066,42.291897 C186.461109,41.7316596 186.207974,40.981313 185.736586,40.6244348 C185.265426,40.2676709 181.958337,39.1803214 178.387511,38.2083014 C174.816713,37.2362814 169.320665,36.177869 166.174108,35.8562484 C163.027551,35.5345135 160.063992,35.4206689 159.588424,35.6030488 C159.085954,35.7957089 156.451113,33.5784799 153.298518,30.3101261 C150.314644,27.2166357 145.974262,23.242567 143.65323,21.4788699 C141.33222,19.7151918 136.803759,16.9983638 133.590027,15.4415213 C130.376273,13.8846674 125.117462,11.8256405 121.90373,10.8659302 C117.446824,9.53493796 114.135221,9.03992321 107.94509,8.77933703 C101.309466,8.49986558 98.5003918,8.69214498 92.5402884,9.831962 C88.5311513,10.5987951 82.7566325,11.9485965 79.7080102,12.8315207 C76.6594108,13.7144449 73.9176488,14.4368443 73.6152607,14.4368443 C73.3126895,14.4368443 72.7568465,12.9039396 72.3796167,11.0304148 C72.0024326,9.15689001 71.0645992,5.94509677 70.2956289,3.89312146 C68.8974845,0.162253791 68.8974845,0.162253791 60.7528994,0.162253791 C52.6157252,0.162253791 52.6087171,0.163552153 53.0261234,1.62216846 C53.2559128,2.42513486 54.2851126,6.29385353 55.3132596,10.2193651 C56.3414066,14.1448766 57.8113717,22.1383578 58.5798843,27.982654 C59.3483968,33.826954 59.8293523,38.9936082 59.6486793,39.4641139 C59.4001223,40.1110865 58.7987792,40.170103 57.1804581,39.7062718 C56.0035889,39.3689261 53.5579804,39.0929576 51.7457437,39.0929576 C49.9335207,39.0929576 46.8921537,39.5555323 44.987159,40.1209099 C43.0821598,40.6862875 40.4603963,41.8195937 39.1610164,42.6393513 C37.8616356,43.4591088 35.8856991,45.1688344 34.7700445,46.4387161 C33.6543899,47.7085978 32.4432765,49.2761128 32.0786759,49.9220954 C31.6412065,50.6971908 31.2026018,50.8759155 30.7889216,50.4477226 C30.444146,50.0909586 29.4408364,47.4630513 28.5593243,44.608121 C27.6778121,41.7532097 26.355695,36.9355294 25.6212892,33.9021791 C24.8868789,30.8688097 23.9908195,27.0730887 23.6300457,25.4671977 C23.269249,23.861303 21.5270293,17.5837309 19.7583977,11.5170302 C16.5427066,0.48666912 16.5427066,0.48666912 8.35707072,0.305069792 C0.171435265,0.123451427 0.171435265,0.123451427 0.171435265,29.2621611 L0.171022834,29.2622563 Z M147.941314,55.1425687 C148.033779,57.0109534 148.26723,58.7953443 148.46072,59.1079259 C148.65389,59.4205227 149.254088,62.4069835 149.794231,65.7445846 C150.439655,69.7328249 150.556884,72.0322543 150.136168,72.4527255 C149.78416,72.8045397 149.496008,73.6180529 149.496008,74.2604184 C149.496008,74.9027839 149.802699,75.428335 150.177503,75.428335 C150.552398,75.428335 151.793993,74.9439432 152.93676,74.351913 C154.099256,73.7496406 156.632431,73.2526459 158.687366,73.2235565 C160.059968,73.2041382 161.063946,73.2688659 161.85173,73.4531496 C162.639559,73.6374332 163.211149,73.9413869 163.718928,74.4006111 C164.09245,74.7387182 164.432282,75.207918 164.67855,75.6918148 C164.924819,76.1757117 165.077706,76.6741912 165.077706,77.0704391 C165.077706,77.6367686 164.757283,78.1834894 163.847967,78.9312468 C162.938697,79.6790043 161.440581,80.6278365 159.085226,81.9984269 C155.789352,83.9163473 152.529822,85.7120465 151.841777,85.9888794 C151.153325,86.2660663 149.566359,86.1545062 148.312588,85.7410103 C147.059596,85.3277428 144.742019,83.7990264 143.162396,82.3438711 C141.582801,80.8887539 139.593475,78.3236706 138.741652,76.6437273 C137.88983,74.9637765 137.012327,72.4606376 136.791602,71.0811756 C136.503221,69.2798413 136.865299,67.1200791 138.075309,63.4170634 C139.195006,59.9908729 139.629271,57.5629209 139.369728,56.180116 C139.061206,54.5360319 139.354792,53.6069226 140.768696,51.7542858 C141.752991,50.4646051 143.315833,49.0054519 144.241719,48.5117698 C145.847773,47.655384 145.967565,47.7090318 146.849233,49.6799528 C147.35747,50.8161147 147.848908,53.2744354 147.941282,55.142801 L147.941314,55.1425687 Z M175.734246,53.7733871 C177.437571,54.3534236 179.826876,55.8230474 181.043803,57.0392432 C182.260725,58.255439 183.251932,59.7517154 183.246439,60.3643442 C183.241243,60.976973 182.957142,61.9161723 182.615662,62.4514705 C182.101932,63.2568737 181.795699,63.281356 180.840197,62.5934907 C180.205163,62.1362846 177.640449,60.7753652 175.140872,59.5692213 C172.641295,58.3630774 169.500611,57.1717447 168.161557,56.9218576 C166.350936,56.5841312 165.726934,56.1480187 165.726934,55.2210796 C165.726934,54.5349658 166.383573,53.7109058 167.187699,53.3878764 C167.991137,53.0649993 169.545969,52.782558 170.64287,52.7599414 C171.73977,52.7372943 174.030889,53.1933886 175.734223,53.7734252 L175.734246,53.7733871 Z M174.212189,62.0310335 C176.195976,62.9078276 178.750299,64.6851746 179.888484,65.9807075 C181.363301,67.6594019 181.957916,68.9822461 181.957916,70.5845922 C181.957916,71.8211962 181.701577,72.8329666 181.388157,72.8329666 C181.0746,72.8329666 180.481267,72.4270096 180.069249,71.9308145 C179.657276,71.4346194 177.859975,70.4009178 176.075355,69.6336658 C174.29078,68.8664139 170.92622,68.0609346 168.598578,67.843716 C165.335203,67.5391149 164.150689,67.140811 163.423608,66.103416 C162.905025,65.363464 162.480739,64.10965 162.480739,63.3171162 C162.480739,62.5245824 163.13811,61.4017087 163.941549,60.8218626 C164.954178,60.0910105 166.200488,59.8702128 168.003831,60.1022046 C169.434658,60.2861074 172.22843,61.1542204 174.212212,62.0310145 L174.212189,62.0310335 Z M76.7811946,67.6422109 C76.7811946,67.9989749 76.2699362,68.2865944 75.6450191,68.2811116 C74.6740448,68.2726094 74.6504708,68.1798318 75.4825187,67.6422109 C76.0181292,67.296108 76.5294334,67.008755 76.6186942,67.0033103 C76.707955,66.9978465 76.7811946,67.285447 76.7811946,67.6422109 Z M72.0881001,68.4116332 C71.9471138,68.8348001 68.3436785,70.1512858 64.080821,71.3370976 C59.8179543,72.5229094 55.3659464,73.5384493 54.1874476,73.5938486 C52.9386204,73.6524843 51.5940324,73.2443189 50.9644463,72.614937 C49.9568979,71.6080022 50.0321516,71.5353167 52.0821745,71.5353167 C53.2910861,71.5353167 54.8455514,71.0243485 55.5365672,70.3998402 C56.3324989,69.6804868 58.0167356,69.2157418 60.1323629,69.1316719 C61.9690754,69.0585677 64.9325841,68.7327207 66.7179876,68.4072926 C68.5033866,68.0817502 70.4998073,67.7766162 71.1544322,67.7289461 C71.8098811,67.6813522 72.2294068,67.987857 72.0880543,68.4116712 L72.0881001,68.4116332 Z M175.29998,72.9216474 C177.640215,74.0391144 180.059929,75.7819653 181.022943,77.0437675 C181.94059,78.246142 182.715145,80.0657905 182.744257,81.0874985 C182.773343,82.1092065 182.455419,83.5830186 182.037999,84.3626449 C181.620533,85.1422713 180.640907,86.1213732 179.861134,86.5384482 C178.596148,87.2150432 178.195436,87.0109225 176.142895,84.6445532 C174.877635,83.1858569 172.482928,81.4138785 170.821373,80.7068728 C169.412975,80.1075703 168.658836,79.747075 168.26444,79.2667953 C167.869862,78.7864776 167.835531,78.1863755 167.8662,77.1077451 C167.890231,76.2630484 167.787925,75.5607526 167.518769,74.9020148 C167.249614,74.243277 166.813929,73.6280591 166.171023,72.957518 C165.686817,72.4524514 165.298693,71.9412928 165.063365,71.5246747 C164.828083,71.1080186 164.745688,70.785903 164.872942,70.6588082 C165.000196,70.5316373 165.448239,70.4604368 166.067663,70.4482528 C166.687087,70.436023 167.477847,70.4826651 168.290532,70.5910345 C169.915902,70.8080627 173.07026,71.8567279 175.300246,72.921537 L175.29998,72.9216474 Z M35.0884899,92.1361124 C34.5429417,92.7606245 33.7414576,94.7906266 33.3074075,96.6472259 C32.8733712,98.5038301 32.7073599,100.328706 32.9385087,100.702506 C33.1696713,101.076328 34.0864666,101.382151 34.9758291,101.382151 C35.8651916,101.382151 37.4548165,100.93668 38.5083273,100.392221 C39.5618381,99.847761 40.4238044,98.9890493 40.4238044,98.4839827 C40.4238044,97.9789085 40.1376663,97.3889458 39.7879838,97.1729456 C39.4382645,96.9569453 38.5574757,97.0983183 37.8306365,97.4870654 C36.78932,98.0440207 36.4289307,97.9850843 36.1309873,97.2091169 C35.9230326,96.6674868 36.3617379,95.2397875 37.1058708,94.0364535 C37.8500266,92.8331119 38.2679823,91.6577822 38.0346592,91.4245986 C37.8013452,91.1914266 37.2661741,91.0006359 36.8454124,91.0006359 C36.4246508,91.0006359 35.634029,91.5116003 35.0884899,92.1361124 Z M66.3933759,104.301954 C65.7473566,105.079874 65.7528038,105.477108 66.4204471,106.281053 C67.1560018,107.166825 67.3698615,107.172826 68.2118426,106.331351 C68.7377031,105.805811 68.9910664,104.915222 68.774918,104.352251 C68.5588611,103.78928 68.1163564,103.328674 67.7917675,103.328674 C67.4672244,103.328674 66.8379587,103.766644 66.3933942,104.301942 L66.3933759,104.301954 Z M89.8450931,104.806845 C89.4445639,105.207201 89.116725,105.883096 89.116725,106.308837 C89.116725,106.734581 89.519543,107.237325 90.0114844,107.426056 C90.5036089,107.614795 91.233991,107.441629 91.634566,107.041284 C92.0350952,106.640928 92.3629341,105.965034 92.3629341,105.539293 C92.3629341,105.113548 91.9601162,104.610804 91.4681747,104.422073 C90.9760502,104.233335 90.2456681,104.406501 89.8450931,104.806845 Z" id="path4113" fill="#000000"></path>
                    <path d="M35.3957567,87.0363909 C33.9268216,87.6856861 32.3855303,88.8487671 31.9706782,89.6209916 C31.2841345,90.8989643 31.4242099,90.8671373 33.5305632,89.2666264 C35.4916869,87.7764838 36.2825329,87.5573462 38.7144002,87.8304135 C40.2927142,88.0078436 41.5840615,87.9347393 41.5840615,87.6682134 C41.5840615,87.4013068 41.0804155,87.006658 40.4648548,86.7903913 C39.849294,86.5741246 39.0578483,86.275349 38.7061013,86.1265514 C38.3543222,85.9780584 36.8646923,86.3873661 35.3957618,87.0365089 L35.3957567,87.0363909 Z M27.5140369,94.6188865 C25.9311546,95.6229695 22.8766178,98.1326079 20.7261719,100.195863 C18.5757283,102.259113 16.2014095,105.147899 15.4499046,106.61538 C14.3514201,108.760423 14.083537,110.417696 14.083537,115.068412 C14.083537,119.685163 14.3563546,121.394946 15.4348081,123.53569 C16.1780072,125.011008 17.3568768,126.839339 18.05453,127.598649 C18.8882304,128.506031 19.1374923,129.291104 18.7817903,129.889195 C18.4841628,130.389686 15.8496465,132.891299 12.9273813,135.448335 C9.4222564,138.515386 7.82955407,140.312063 8.2471005,140.728026 C8.5952176,141.074852 11.2739569,141.535779 14.1998626,141.752377 C19.5196905,142.146191 19.5196905,142.146191 19.5536284,148.157047 C19.5767607,152.253759 19.8329918,154.249401 20.3582435,154.423824 C20.782072,154.564588 23.069222,152.817537 25.4406862,150.5415 C29.7524495,146.403254 29.7524495,146.403254 32.169635,148.924221 C33.6173398,150.434079 36.933349,152.582936 40.4373345,154.2819 C45.8967036,156.928963 46.6329999,157.117971 51.450643,157.10905 C55.036867,157.102412 58.0785956,156.645958 61.4112961,155.614324 C64.0501198,154.797483 67.1699036,153.634219 68.3441545,153.029285 C69.5184146,152.424359 70.8437772,152.06879 71.2893945,152.239146 C71.9350018,152.485949 72.9124304,152.966811 72.1553615,156.183418 C71.6325222,158.403743 70.5120932,162.589372 69.6653974,165.484807 C68.81861,168.38023 67.9616148,171.175633 67.7609382,171.696768 C67.4670642,172.45907 68.0337558,172.644305 70.657245,172.644305 C73.1156703,172.644305 73.3257765,172.693803 74.5910368,171.613193 C75.5143139,170.824771 78.3488705,167.742627 80.8901848,164.76407 C83.4314625,161.785518 85.8541927,158.70343 86.2740434,157.914989 C86.693798,157.126549 87.3420602,156.481464 87.7144379,156.481464 C88.1589109,156.481464 89.6542352,157.430647 89.3764739,159.625157 C89.1430226,161.464855 88.5327992,164.690293 88.019481,166.792805 C87.5061628,168.895351 86.9309571,171.117283 86.7411749,171.730509 C86.4656108,172.620744 86.7822989,172.845501 88.3116155,172.845501 C89.9583628,172.845501 89.1314874,172.532904 91.0497247,169.383254 C92.2766258,167.368356 94.6107269,162.614829 96.2364818,158.819877 C97.8621726,155.024925 100.034277,148.66722 101.06322,144.691643 C102.766362,138.111347 102.871415,137.108939 102.2351,133.510417 C101.746541,130.74859 100.401981,129.156839 99.1575023,127.767673 C97.4935621,125.910304 97.6226012,125.559974 92.6427507,125.262385 C90.100617,125.432025 90.0641665,126.538779 87.3449761,125.837757 C86.9051035,126.420284 82.0153056,127.482214 78.6681998,128.682708 C75.3211398,129.883201 68.8457178,131.899568 64.2783803,133.163525 C59.7110657,134.427482 53.5822868,135.691523 50.6589226,135.972514 C47.7355172,136.253547 45.1969127,136.246769 45.0174986,135.95756 C44.8380615,135.668303 45.7091553,134.050327 46.9533134,132.361954 C48.19738,130.673584 49.8121306,127.905124 50.5415973,126.209819 C51.2710182,124.514515 51.7287659,122.766254 51.5587584,122.324794 C51.332631,121.738696 49.7551868,122.129088 45.7107208,123.771755 C42.1477091,125.218875 39.9514505,125.801795 39.5539918,125.405843 C39.1565753,125.00989 39.6245308,123.675746 40.8659287,121.665869 C41.9273219,119.947424 43.6616866,116.684842 44.7200679,114.415689 C45.778472,112.146533 46.9427074,108.42637 47.307395,106.148651 C47.6717621,103.870932 47.9725023,100.51906 47.9751572,98.7000449 C47.9778351,96.8810285 47.7101213,95.2265689 47.3802226,95.0234724 C47.0506443,94.8203797 45.9160252,95.9057988 44.8595436,97.4355432 C43.803062,98.9652801 41.9333917,101.09617 40.7047283,102.170861 C39.4760695,103.245547 37.8797386,104.31173 37.157335,104.540139 C36.3817273,104.785343 35.0905448,104.512106 34.0042592,103.87288 C32.9924767,103.27748 31.6578401,101.93561 31.0384114,100.890958 C30.1947321,99.468136 30.0049591,98.2109943 30.2820429,95.8803201 C30.4855575,94.1691248 30.5934944,92.7744975 30.5221316,92.7811569 C30.4507229,92.7878181 29.0972913,93.6147928 27.514409,94.6188758 L27.5140369,94.6188865 Z" id="path4111" fill="#CA660E"></path>
                    <path d="M135.756909,64.602978 C136.259745,64.6722747 137.177346,63.2616674 137.935284,61.2545369 C138.891427,58.7224647 139.051181,57.5930802 138.527243,57.0694901 C138.132665,56.6750698 137.809678,55.8747306 137.809678,55.2909247 C137.809678,54.7071187 138.849177,52.8960752 140.119656,51.2663416 C141.390135,49.6366119 143.316154,47.9362147 144.399688,47.4876897 C146.03403,46.8111327 146.468479,46.828 146.949205,47.586685 C147.267798,48.0897336 147.989437,50.0684219 148.552604,51.9837723 C149.115771,53.8991416 149.407036,55.907658 149.199905,56.4471407 C148.992545,56.9866272 149.115221,58.3393223 149.472265,59.453096 C149.829308,60.5669077 150.531081,63.6680242 151.031811,66.3445116 C151.64121,69.6016104 151.735094,71.6047087 151.315614,72.4018991 C150.97093,73.0569817 150.797215,73.7009844 150.929275,73.833067 C151.061564,73.9651877 152.472846,73.6194655 154.065762,73.064749 C155.953971,72.4073057 158.148276,72.1751617 160.370486,72.3977489 C163.388233,72.7000654 163.779012,72.6003086 163.779012,71.5266661 C163.779012,70.8597802 164.093027,70.1201327 164.477077,69.8830008 C164.929332,69.6035294 164.716021,68.9620777 163.871065,68.0603825 C163.15382,67.2951105 162.247617,65.8265908 161.85725,64.7970393 C161.296006,63.3167925 161.353865,62.6103847 162.13373,61.4209176 C162.716442,60.5320918 164.066432,59.7392534 165.433449,59.4829697 C166.705896,59.2442387 168.826229,59.2168246 170.145348,59.421288 C172.485675,59.7845247 172.504442,59.7711984 170.920635,58.874453 C170.027936,58.3690437 168.529865,57.9451914 167.59162,57.9325505 C166.653374,57.9198981 165.537523,57.4902317 165.111909,56.9777785 C164.512351,56.255836 164.516379,55.7078968 165.129633,54.5446255 C165.564951,53.7188902 166.242555,52.8287317 166.635486,52.5665464 C167.028233,52.3042087 168.914291,52.085391 170.826349,52.0799082 C173.281707,52.0728985 175.284078,52.5614824 177.643356,53.7433344 C179.480617,54.6636864 181.568176,55.9045929 182.282317,56.5009256 C183.551926,57.5610514 183.555542,57.5551879 182.444817,56.2363035 C181.819946,55.4944857 181.309969,54.6185293 181.311617,54.2897506 C181.313563,53.9611622 182.206468,51.4005717 183.296503,48.5999251 C185.186268,43.7445466 185.223849,43.4665296 184.105068,42.6187488 C183.459735,42.1297499 181.78383,41.7203661 180.380833,41.7089817 C178.977836,41.6976277 175.837138,41.0469313 173.401513,40.2629644 C170.965884,39.4789975 168.973079,38.6030411 168.973079,38.3164115 C168.973079,38.0297058 169.722366,37.7952772 170.638136,37.7952772 C171.553906,37.7952772 173.760799,38.4219558 175.542317,39.1878751 C177.835724,40.1738686 178.983526,40.3784844 179.473637,39.8886859 C179.963701,39.3988874 179.432279,38.984592 177.653357,38.469702 C176.271509,38.0697608 172.803612,37.3167871 169.94696,36.7964905 C167.090295,36.2761938 163.352396,35.850095 161.640488,35.8496001 C158.588227,35.8489528 164.045952,42.5752784 158.184951,36.7738738 C139.070901,52.2323534 140.388912,49.4724624 135.756913,64.6029628 L135.756909,64.602978 Z M152.742167,41.9745405 C152.742167,42.4887832 152.450124,43.0899514 152.092943,43.3105206 C151.7359,43.5309756 151.44372,43.5720967 151.44372,43.4019009 C151.44372,43.2317051 151.266571,42.6303846 151.049599,42.0659208 C150.790971,41.3924098 151.014215,41.0395676 151.698822,41.0395676 C152.272655,41.0395676 152.742121,41.4602978 152.742121,41.9745405 L152.742167,41.9745405 Z M166.051564,43.6349588 C165.83093,43.9917227 165.29802,44.283797 164.867463,44.283797 C164.436722,44.283797 162.994405,44.8677553 161.661947,45.5814736 C160.32949,46.2951919 158.653904,46.8791501 157.938445,46.8791501 C157.222985,46.8791501 156.640364,46.6602181 156.643751,46.3925119 C156.646997,46.1248438 158.47314,45.2740169 160.701501,44.5017391 C162.929863,43.7294612 165.13552,43.072513 165.602963,43.0418244 C166.070414,43.011132 166.272281,43.2778902 166.051555,43.6348826 L166.051564,43.6349588 Z M175.794064,44.3958521 C175.915825,44.5173118 175.787312,45.6369491 175.50843,46.8835668 C175.001657,49.1501412 175.001657,49.1501412 174.289539,47.4021882 C173.897707,46.4408292 172.760525,45.184883 171.762131,44.6112432 C169.946796,43.5682511 169.946796,43.5682511 172.759701,43.8714815 C174.306796,44.0382505 175.672166,44.2742402 175.793881,44.3958521 L175.794064,44.3958521 Z M149.486034,46.7169501 C149.478307,48.1073776 149.337266,48.2864069 148.846743,47.5279884 C148.500686,46.9926902 148.2129,46.1897618 148.207453,45.7436736 C148.202262,45.2975854 148.489883,44.9326353 148.846743,44.9326353 C149.203786,44.9326353 149.491527,45.7355636 149.486034,46.7169501 Z M179.360962,49.4745413 C179.360962,50.659287 179.02406,51.4210561 178.499527,51.4210561 C177.911687,51.4210561 177.728909,50.8028303 177.923955,49.4745413 C178.080962,48.4039448 178.468812,47.5279884 178.78539,47.5279884 C179.102152,47.5279884 179.360916,48.4039448 179.360916,49.4745413 L179.360962,49.4745413 Z M152.092929,53.0049053 C152.092929,53.1621556 151.800886,53.471478 151.443706,53.6920472 C151.086663,53.9125022 150.794482,53.7838083 150.794482,53.406103 C150.794482,53.0280169 151.086525,52.7189611 151.443706,52.7189611 C151.800749,52.7189611 152.092929,52.8476551 152.092929,53.0049053 Z M184.554874,40.9629833 C184.554874,41.3197472 184.846917,41.7922596 185.204097,42.0128288 C185.56114,42.2332838 185.853321,42.1217237 185.853321,41.7649597 C185.853321,41.4081958 185.561278,40.9356453 185.204097,40.7151142 C184.847054,40.4946592 184.554874,40.6062193 184.554874,40.9629833 Z M173.517813,60.5048948 C174.053424,60.8509977 174.783852,61.1338578 175.140895,61.1338578 C175.497938,61.1338578 175.351917,60.8509596 174.816352,60.5048948 C174.280741,60.1587918 173.550359,59.8759317 173.19327,59.8759317 C172.836227,59.8759317 172.982248,60.1588299 173.517813,60.5048948 Z M176.114753,61.4781712 C176.114753,61.6567436 176.260775,61.8025713 176.439296,61.8025713 C176.617818,61.8025713 176.763839,61.6567436 176.763839,61.4781712 C176.763839,61.2995988 176.617818,61.1537711 176.439296,61.1537711 C176.260775,61.1537711 176.114753,61.2995988 176.114753,61.4781712 Z M180.727211,65.1729056 C181.050838,65.7775386 181.606224,66.4517349 181.96139,66.6710857 C182.316602,66.8903985 182.607135,66.7845496 182.607135,66.4357814 C182.607135,66.0870133 182.773297,65.3695255 182.976079,64.8412712 C183.245235,64.1404223 182.911537,63.9068695 181.7419,63.9771561 C180.447435,64.0548294 180.252206,64.2851839 180.727394,65.1728294 L180.727211,65.1729056 Z M170.2716,69.6611256 C171.164299,70.0587442 173.036441,70.8542098 174.431885,71.4288396 C175.827329,72.0034695 178.091577,73.2862587 179.463488,74.2794865 C180.835404,75.2727143 181.957893,75.7653303 181.957893,75.3742226 C181.957893,74.9831149 181.300521,74.0987058 180.497128,73.4088986 C179.69369,72.7190915 178.013802,71.6123618 176.764013,70.9494738 C175.514225,70.2865858 173.176965,69.5628918 171.570102,69.3412184 C169.07762,68.9974 168.886922,69.0442324 170.271609,69.6610495 L170.2716,69.6611256 Z M136.175583,75.4283273 C136.436957,76.3205038 137.089156,77.4884203 137.62527,78.0237185 C138.377212,78.774522 138.342423,78.4778786 137.47284,76.726042 C136.853004,75.4770254 136.200622,74.3091089 136.023153,74.1306508 C135.845547,73.9520784 135.914209,74.536189 136.175583,75.4283273 Z M158.926942,82.963026 C155.008439,85.2425079 151.125686,87.1075343 150.298659,87.1075343 C149.471647,87.1075343 147.691512,86.5448981 146.342758,85.8572613 C144.994051,85.1696244 143.495888,84.1317345 143.013514,83.5508603 C142.531139,82.9699862 141.535309,82.1731879 140.800533,81.7802145 C139.495494,81.0822213 139.490734,81.1017919 140.594088,82.6267008 C141.215252,83.4852569 141.911028,84.5900448 142.140269,85.0817851 C142.387452,85.6119432 141.921465,86.4724792 140.994938,87.1960209 C140.135792,87.867095 137.679884,89.269699 135.537378,90.3128852 C133.39489,91.3560714 129.158604,92.7139485 126.123412,93.3303849 C123.088225,93.946825 120.490209,94.5436869 120.350056,94.656732 C120.209986,94.7697771 120.475937,95.3209336 120.941649,95.8815099 C121.407179,96.4420938 122.670928,97.5290436 123.750023,98.296958 C125.063255,99.2314816 125.592823,99.3823848 125.35159,98.7533037 C125.06916,98.0173571 125.661943,97.8034853 128.082421,97.7675652 C131.001204,97.7242738 131.102823,97.7789847 129.904394,98.7488375 C128.834958,99.6143004 128.74405,100.062243 129.326991,101.594542 C129.70738,102.594749 130.018831,103.731326 130.018831,104.120267 C130.018831,104.509212 129.426552,104.291758 128.702669,103.637029 C127.393008,102.452504 127.390993,102.457325 128.297563,104.612468 C128.798751,105.803683 129.987796,107.754013 130.939911,108.946531 C131.892026,110.139056 133.207135,111.114758 133.862355,111.114758 C134.517575,111.114758 135.353056,111.479746 135.719026,111.925815 C136.084766,112.371895 136.46932,113.320831 136.573091,114.03456 C136.677,114.74829 135.98809,116.829583 135.042475,118.659659 C134.096859,120.489733 133.504809,122.168621 133.726862,122.390515 C133.94887,122.612417 134.374026,122.793963 134.671607,122.793963 C134.969143,122.793963 135.212619,122.227234 135.212619,121.534568 C135.212619,120.841897 135.504662,120.094718 135.861843,119.874161 C136.228499,119.647576 136.511066,120.180399 136.511066,121.099178 C136.511066,122.548306 136.776102,122.723536 138.945689,122.709871 C140.284738,122.701435 141.964626,122.840544 142.678804,123.019041 C143.392982,123.19751 144.269431,123.389588 144.62652,123.445876 C144.983564,123.502163 144.453949,123.911564 143.449743,124.355653 C141.845886,125.064844 141.746418,125.264836 142.631931,125.99931 C143.303309,126.556159 143.503162,127.380917 143.230161,128.467994 C142.923012,129.690857 143.046604,130.024517 143.723384,129.797795 C144.220132,129.631331 144.632151,129.082298 144.638971,128.577722 C144.645792,128.073147 144.93788,127.660313 145.288195,127.660313 C145.638372,127.660313 145.85365,127.874166 145.766495,128.135539 C145.679523,128.396914 146.263609,128.743486 147.064988,128.9057 C147.866321,129.067915 150.567078,129.373176 153.066641,129.58406 C155.566218,129.794943 158.602325,130.144554 159.813562,130.360971 C161.231848,130.614384 161.870497,130.519448 161.607567,130.094274 C161.383271,129.731232 159.65921,129.241833 157.776768,129.006776 C155.894286,128.771704 153.918363,128.30408 153.385815,127.967596 C152.751427,127.566761 155.465555,127.35238 161.257028,127.345871 C169.240921,127.336897 170.264024,127.204247 171.827191,125.975408 C173.191966,124.902539 173.752935,124.776687 174.480525,125.38017 C174.987984,125.801079 176.016909,125.95079 176.767021,125.712863 C177.688283,125.420644 177.938122,125.034786 177.536952,124.523778 C177.21012,124.107709 176.751137,122.964343 176.516541,121.982965 C176.281259,120.998068 176.364111,120.198643 176.701471,120.198643 C177.037458,120.198643 177.6659,121.293569 178.097556,122.631811 C178.529212,123.970054 179.016118,125.298142 179.17958,125.58312 C179.342996,125.868097 179.845419,125.795491 180.29598,125.421769 C180.896179,124.923971 180.972577,123.840558 180.581615,121.37005 C180.288199,119.515327 180.165522,117.880754 180.30834,117.737667 C180.451615,117.594581 181.189046,118.692831 181.947305,120.178222 C182.705564,121.663613 183.654566,122.769456 184.05624,122.635648 C184.457685,122.501852 185.084296,121.920605 185.448251,121.34401 C185.932319,120.577082 185.774625,119.673003 184.860045,117.976193 C183.990736,116.36298 183.160931,115.656732 182.134707,115.656732 C181.059458,115.656732 180.659249,115.27975 180.659249,114.266948 C180.659249,113.502567 179.533052,111.093729 178.156605,108.913976 C176.780158,106.734228 175.006843,103.68158 174.215901,102.130322 C173.424959,100.579069 172.901525,99.1862278 173.052719,99.0351266 C173.203775,98.8840064 174.109292,99.940881 175.064703,101.383703 C176.020114,102.826526 178.386944,106.057404 180.324388,108.563425 C182.261805,111.06945 184.91367,114.874707 186.21739,117.019551 C187.835803,119.682137 188.489604,121.432439 188.278353,122.536897 C188.04124,123.776409 188.214726,124.103418 189.021095,123.935883 C189.808878,123.772172 190.033678,123.080869 189.915854,121.184272 C189.82934,119.791137 189.497931,118.390871 189.179384,118.07257 C188.860792,117.754262 188.749559,116.922561 188.932658,116.224331 C189.115299,115.526102 189.592822,115.071946 189.993717,115.215093 C190.394704,115.358255 190.651363,116.109443 190.564299,116.884436 C190.422398,118.149197 190.555145,118.215516 191.862792,117.531972 C192.664034,117.113127 194.145671,116.191884 195.15528,115.484764 C196.616364,114.46148 196.908179,113.86935 196.585238,112.583378 C196.251082,111.252965 196.646576,110.568149 198.82431,108.705162 C200.278941,107.460786 201.933058,105.523033 202.50007,104.399038 C203.530872,102.355721 203.530597,102.355804 200.778801,104.950796 C198.835067,106.783744 197.931199,107.284085 197.701959,106.654014 C197.523437,106.163325 196.805185,105.190056 196.10593,104.491202 C195.406629,103.792337 194.990994,103.064128 195.182333,102.872952 C195.373671,102.681777 196.003166,102.998105 196.581301,103.575865 C197.159436,104.153647 198.176185,104.626377 198.840789,104.626377 C199.511161,104.626377 200.248592,103.9984 200.497057,103.215918 C200.810157,102.230343 200.590438,101.54624 199.767499,100.944961 C199.119878,100.471687 198.119928,100.084463 197.545455,100.084463 C196.970936,100.084463 196.162691,99.74647 195.749345,99.3333474 C195.18009,98.7644288 194.777043,98.7653084 194.087812,99.3372406 C193.366402,99.935591 192.25348,99.4725215 188.717237,97.1026455 C186.263893,95.458512 182.520721,93.2375478 180.399047,92.1671809 C178.277386,91.0968129 176.032363,89.5935687 175.41017,88.8266481 C174.787953,88.0597388 174.377308,87.333075 174.497558,87.2118818 C174.617946,87.0908029 176.418679,88.143428 178.499417,89.5512711 C180.580155,90.9591294 183.259237,92.6127094 184.452938,93.2258942 C185.646652,93.8390865 186.730004,94.2341655 186.86037,94.1038533 C186.990828,93.9735222 185.502828,92.9137048 183.55383,91.7486743 C181.604832,90.5836401 180.010222,89.208831 180.010222,88.693545 C180.010222,88.1782362 179.439686,87.7566684 178.742353,87.7566684 C178.04502,87.7566684 176.563474,86.6237429 175.450003,85.2390267 C174.336577,83.8543104 172.204663,82.1936636 170.712429,81.5486328 C169.220217,80.9036021 167.561065,80.0255135 167.025455,79.5973206 C166.231034,78.9622274 164.738913,79.5823989 158.926992,82.9632762 L158.926942,82.963026 Z M169.251852,88.4052223 C169.676642,90.027337 169.676642,90.027337 168.698573,88.4052223 C168.160719,87.5130458 167.710295,86.5057302 167.697616,86.1667093 C167.683073,85.7773911 167.887123,85.7773911 168.250895,86.1667093 C168.567657,86.5055779 169.018264,87.5130458 169.251852,88.4052223 Z M172.84865,90.027337 C172.84865,90.3842152 172.565304,90.238197 172.219293,89.7028988 C171.873236,89.1676006 171.589936,88.4376508 171.589936,88.0807879 C171.589936,87.7240239 171.873282,87.8698517 172.219293,88.405188 C172.56535,88.9404862 172.84865,89.670436 172.84865,90.0273027 L172.84865,90.027337 Z M134.542797,95.0941794 C134.522798,96.4690495 134.491529,96.4753091 133.589721,95.2847074 C133.076906,94.6076174 132.814205,93.7999106 133.006001,93.4898001 C133.197797,93.1796782 133.626661,93.0939406 133.959077,93.2992722 C134.291402,93.5045733 134.554149,94.3122952 134.542797,95.0941794 Z M174.816256,93.2715611 C174.816256,93.4499811 174.670234,93.5959993 174.491713,93.5959993 C174.313191,93.5959993 174.167169,93.4500192 174.167169,93.2715611 C174.167169,93.093141 174.313191,92.9471229 174.491713,92.9471229 C174.670234,92.9471229 174.816256,93.093103 174.816256,93.2715611 Z M188.774891,107.326378 C190.56029,109.022918 192.727175,110.961849 193.59014,111.635103 C194.611329,112.431795 195.015154,113.23432 194.746685,113.933535 C194.519642,114.524415 194.032873,115.007863 193.664569,115.007863 C193.296083,115.007863 192.994976,114.569892 192.994976,114.034598 C192.994976,113.4993 192.775715,113.059334 192.50807,113.056897 C192.240288,113.054432 191.32612,112.032528 190.476677,110.78594 C189.627189,109.539353 188.418186,108.519415 187.789973,108.519415 C187.16176,108.519415 184.350869,106.161784 181.543581,103.280234 C178.736306,100.398681 176.084583,97.4058839 175.650885,96.6295735 C175.217398,95.8532635 174.851978,94.9484766 174.839344,94.6189478 C174.826688,94.2894075 177.226636,96.3197333 180.172558,99.1307687 C183.118484,101.94181 186.989565,105.629832 188.774973,107.32638 L188.774891,107.326378 Z M174.798056,112.700683 C175.522212,114.821948 176.114721,116.75876 176.114721,117.00471 C176.114721,117.250676 175.530681,117.604527 174.816869,117.791076 C174.103057,117.977644 173.338207,117.837832 173.117206,117.480459 C172.896114,117.123086 173.062276,116.182794 173.486151,115.390961 C174.130248,114.188187 173.982578,113.33086 172.588874,110.181335 C171.671319,108.107878 170.927113,106.228753 170.935077,106.005511 C170.942996,105.782276 171.519163,106.329568 172.215352,107.221726 C172.911586,108.113887 174.073716,110.579419 174.797873,112.700683 L174.798056,112.700683 Z M169.912025,114.203836 C170.336815,115.584101 170.263575,115.625188 168.669377,114.89932 C167.634456,114.428072 167.111296,113.773462 167.324927,113.217112 C167.517181,112.716191 167.686547,111.673272 167.700738,110.899517 C167.725538,109.558271 167.767111,109.568307 168.593666,111.114793 C169.070502,112.006955 169.663788,113.397024 169.912117,114.203832 L169.912025,114.203836 Z M139.757353,113.385754 C139.757353,113.921052 139.474465,114.359023 139.128499,114.359023 C138.782442,114.359023 138.667822,113.921052 138.873534,113.385754 C139.079063,112.850456 139.362042,112.412485 139.502388,112.412485 C139.642916,112.412485 139.757353,112.850456 139.757353,113.385754 Z M166.751067,120.155906 C166.815609,123.263419 166.815609,123.263419 160.97756,123.677556 C157.766689,123.905333 153.650663,124.066597 151.830846,124.035923 C148.879289,123.986174 148.727775,123.918728 150.427071,123.411228 C151.47481,123.098319 154.834632,122.647305 157.89332,122.408973 C160.95199,122.170623 163.819765,121.686052 164.26612,121.33211 C164.712424,120.978163 165.07766,119.89705 165.07766,118.92963 C165.07766,117.962209 165.272203,116.976029 165.51069,116.738121 C165.748719,116.500227 166.110751,116.472699 166.315181,116.676972 C166.519794,116.881245 166.71571,118.446772 166.751415,120.155904 L166.751067,120.155906 Z M171.278145,120.443602 C171.651668,122.991076 171.566984,123.549952 170.844658,123.308834 C170.350932,123.144082 169.918314,122.157903 169.883251,121.117323 C169.848192,120.076741 169.740434,118.933379 169.643849,118.576513 C169.547264,118.219634 169.502863,117.504298 169.545433,116.986842 C169.593497,116.400016 169.846631,116.277948 170.218139,116.662404 C170.545887,117.001425 171.02286,118.702956 171.278145,120.443584 L171.278145,120.443602 Z M182.763501,84.8626742 C181.956767,86.0973745 181.584847,87.1075457 181.936992,87.1075457 C182.289,87.1075457 183.049685,86.3869358 183.627088,85.50622 C184.204537,84.6255042 184.576457,83.6152949 184.453597,83.2613485 C184.330921,82.9072498 183.57019,83.628012 182.763501,84.8626742 Z M190.58206,95.9250062 C191.575968,96.4636626 194.643655,97.4773596 197.399067,98.1776603 C200.154525,98.8779533 202.774142,99.941247 203.220496,100.540534 C203.965297,101.540528 204.031213,101.526551 204.022104,100.370643 C204.016908,99.6779231 203.772173,98.733165 203.478986,98.2711804 C203.18557,97.8091958 200.195608,96.864095 196.834225,96.1709601 C193.472846,95.4778176 190.284419,94.9185587 189.748795,94.9281574 C189.213184,94.9377603 189.588125,95.3863383 190.582078,95.9250024 L190.58206,95.9250062 Z M182.282527,124.09168 C182.054111,124.461135 182.613021,124.740525 183.58102,124.740525 C184.548836,124.740525 185.107975,124.461134 184.879513,124.09168 C184.658879,123.734817 184.074518,123.442836 183.58102,123.442836 C183.087568,123.442836 182.503253,123.734815 182.282527,124.09168 Z M170.926545,128.378664 C168.965737,128.905194 167.081327,129.615928 166.738978,129.958075 C166.341653,130.354957 166.42359,130.580159 166.96419,130.580159 C167.430406,130.580159 169.606996,130.119563 171.801017,129.556612 C173.995047,128.993662 176.067729,128.263711 176.406943,127.9345 C176.78962,127.563108 176.543351,127.352141 175.757719,127.378636 C175.061393,127.402124 172.887412,127.852135 170.926577,128.378664 L170.926545,128.378664 Z" id="path4109" fill="#007100"></path>
                    <path d="M0.36233664,17.8433652 C0.50953913,27.5679283 0.82291501,36.4003264 1.05873241,37.4709228 C1.38749594,38.9634679 1.34461871,39.1148165 0.87488722,38.1197611 C0.46059355,37.2421675 0.247513384,40.1948176 0.21665341,47.2408677 C0.171021461,57.659666 0.171021461,57.659666 8.44881754,59.7361198 C13.0016078,60.8781452 17.8218124,61.8103386 19.1603879,61.8075972 C21.0376797,61.8037059 22.4479362,62.4520188 25.3281577,64.6428236 C27.3818563,66.2049319 30.0552615,67.8108267 31.2690609,68.2114532 C32.4828612,68.6121177 33.8706102,68.9399065 34.3529435,68.9399065 C34.8352813,68.9399065 35.2332243,68.4289383 35.2372662,67.80443 C35.2412911,67.1799218 34.1780564,63.7491508 32.8744918,60.1805023 C31.5709271,56.6118727 29.9484314,52.4281166 29.2689462,50.883302 C28.589461,49.3384798 26.8605023,43.3528982 25.4268137,37.5819842 C23.9931252,31.8110701 21.3845357,21.8337719 19.6299459,15.4102083 C17.8753579,8.98664468 16.2535259,2.92805401 16.0258834,1.94667517 C15.611988,0.162360401 15.611988,0.162360401 7.85334185,0.162360401 C0.094695701,0.162360401 0.094695701,0.162360401 0.36233298,17.8433842 L0.36233664,17.8433652 Z M54.0578546,0.50661668 C54.0578546,0.69585007 55.0710333,4.85668875 56.3093323,9.7526592 C57.5476312,14.6486258 59.0097688,22.1581835 59.5585167,26.440558 C60.1072646,30.7229363 60.6680055,36.1827879 60.8045974,38.5735671 C60.9748795,41.5526414 61.492409,43.6310789 62.4496052,45.1788558 C63.2177515,46.4209807 64.8677487,48.3336467 66.1162555,49.4291786 C67.7003828,50.8192254 69.0549954,51.421079 70.5993445,51.421079 C72.3546237,51.421079 73.0432592,51.0304662 73.9285432,49.5327049 C74.5568477,48.4697234 75.7789424,47.5033005 76.7245117,47.3216441 C77.6483838,47.144214 81.0337482,45.8996141 84.2474617,44.5559428 C87.4611707,43.2122715 91.5734567,41.9854528 93.3858124,41.8296874 C95.920819,41.6118977 97.3437276,41.8841349 99.553582,43.0099403 C101.133498,43.8148485 105.639887,46.6241838 109.567778,49.2529364 C113.495665,51.8816814 118.316274,55.182125 120.280222,56.5872457 C122.244189,57.9923703 125.311826,59.8472764 127.097229,60.7092973 C128.882628,61.5713182 131.696719,62.4516152 133.35074,62.6655593 C136.303533,63.0474529 136.365329,63.018135 136.759266,61.0497651 C136.979901,59.9471474 137.160253,58.1167617 137.160253,56.9822067 C137.160253,55.8093404 137.992347,53.6080649 139.089019,51.8798614 C140.149849,50.2081348 142.172315,48.0341059 143.583323,47.0487025 C144.994376,46.0633182 146.296027,44.7241016 146.475876,44.0726743 C146.695595,43.2770183 147.286364,42.957568 148.276014,43.0993978 C149.523422,43.2783509 149.831212,42.9204447 150.284748,40.7659635 C150.579538,39.366436 151.14243,37.8335694 151.536047,37.359534 C151.92971,36.8854987 152.929157,36.4976654 153.757039,36.4976654 C154.584921,36.4976654 155.462149,36.1744076 155.706403,35.7795685 C155.961826,35.3666437 153.287893,32.2498137 149.414643,28.4455181 C144.877357,23.9889842 140.967643,20.8364967 137.436206,18.7870154 C134.552762,17.1136134 128.563551,14.5365174 124.126809,13.0601428 C116.739723,10.6020125 115.348829,10.3501455 107.619892,10.0709787 C100.3345,9.8078795 98.0694911,9.9933054 91.064304,11.4255014 C86.6007608,12.3381622 80.7576348,13.8007041 78.0795226,14.6755944 C74.9165778,15.7088772 72.9496407,16.051363 72.4665979,15.6529449 C72.0578292,15.3155992 71.5207081,13.9620284 71.2734786,12.6450478 C71.0262949,11.3280671 70.1064967,7.98069216 69.2295895,5.20645069 C67.6352087,0.162383246 67.6352087,0.162383246 60.8464355,0.162383246 C57.1126336,0.162383246 54.0576761,0.317349021 54.0576761,0.506582412 L54.0578546,0.50661668 Z M49.6904842,61.8757936 C48.538196,62.2085702 47.2839674,63.0624811 46.9032129,63.773458 C46.3644439,64.7795933 46.4275673,65.1491505 47.187932,65.440806 C47.7252819,65.6467924 49.0974721,65.3505679 50.2372638,64.7823347 C51.3770097,64.2141015 53.2141799,63.7447113 54.3198236,63.7392285 C55.4254673,63.734035 56.7683616,63.4418617 57.3039722,63.0903902 C58.1696188,62.5224616 58.1696188,62.3804794 57.3039722,61.8125508 C56.7683616,61.4611173 55.3075515,61.1955052 54.0577631,61.222234 C52.8079746,61.2489665 50.8426808,61.5432073 49.6903927,61.8758317 L49.6904842,61.8757936 Z M50.1436544,63.774486 C49.6183889,64.1065012 48.8234186,64.3825839 48.3770688,64.3880667 C47.9307649,64.3932602 47.565528,64.2426197 47.565528,64.0526249 C47.565528,63.86263 48.2228994,63.4587671 49.0263381,63.1550037 C49.8297768,62.8511642 50.6247472,62.7305421 50.7929237,62.8869548 C50.9609171,63.0430628 50.668874,63.4426613 50.1437002,63.7746764 L50.1436544,63.774486 Z" id="path4107" fill="#8C131C"></path>
                </g>
            </g>
        </g>
    </g>
</svg>